%TF.GenerationSoftware,KiCad,Pcbnew,8.0.6*%
%TF.CreationDate,2025-04-07T11:26:50-07:00*%
%TF.ProjectId,csi_project,6373695f-7072-46f6-9a65-63742e6b6963,rev?*%
%TF.SameCoordinates,Original*%
%TF.FileFunction,Copper,L1,Top*%
%TF.FilePolarity,Positive*%
%FSLAX46Y46*%
G04 Gerber Fmt 4.6, Leading zero omitted, Abs format (unit mm)*
G04 Created by KiCad (PCBNEW 8.0.6) date 2025-04-07 11:26:50*
%MOMM*%
%LPD*%
G01*
G04 APERTURE LIST*
G04 Aperture macros list*
%AMRoundRect*
0 Rectangle with rounded corners*
0 $1 Rounding radius*
0 $2 $3 $4 $5 $6 $7 $8 $9 X,Y pos of 4 corners*
0 Add a 4 corners polygon primitive as box body*
4,1,4,$2,$3,$4,$5,$6,$7,$8,$9,$2,$3,0*
0 Add four circle primitives for the rounded corners*
1,1,$1+$1,$2,$3*
1,1,$1+$1,$4,$5*
1,1,$1+$1,$6,$7*
1,1,$1+$1,$8,$9*
0 Add four rect primitives between the rounded corners*
20,1,$1+$1,$2,$3,$4,$5,0*
20,1,$1+$1,$4,$5,$6,$7,0*
20,1,$1+$1,$6,$7,$8,$9,0*
20,1,$1+$1,$8,$9,$2,$3,0*%
%AMOutline5P*
0 Free polygon, 5 corners , with rotation*
0 The origin of the aperture is its center*
0 number of corners: always 5*
0 $1 to $10 corner X, Y*
0 $11 Rotation angle, in degrees counterclockwise*
0 create outline with 5 corners*
4,1,5,$1,$2,$3,$4,$5,$6,$7,$8,$9,$10,$1,$2,$11*%
%AMOutline6P*
0 Free polygon, 6 corners , with rotation*
0 The origin of the aperture is its center*
0 number of corners: always 6*
0 $1 to $12 corner X, Y*
0 $13 Rotation angle, in degrees counterclockwise*
0 create outline with 6 corners*
4,1,6,$1,$2,$3,$4,$5,$6,$7,$8,$9,$10,$11,$12,$1,$2,$13*%
%AMOutline7P*
0 Free polygon, 7 corners , with rotation*
0 The origin of the aperture is its center*
0 number of corners: always 7*
0 $1 to $14 corner X, Y*
0 $15 Rotation angle, in degrees counterclockwise*
0 create outline with 7 corners*
4,1,7,$1,$2,$3,$4,$5,$6,$7,$8,$9,$10,$11,$12,$13,$14,$1,$2,$15*%
%AMOutline8P*
0 Free polygon, 8 corners , with rotation*
0 The origin of the aperture is its center*
0 number of corners: always 8*
0 $1 to $16 corner X, Y*
0 $17 Rotation angle, in degrees counterclockwise*
0 create outline with 8 corners*
4,1,8,$1,$2,$3,$4,$5,$6,$7,$8,$9,$10,$11,$12,$13,$14,$15,$16,$1,$2,$17*%
G04 Aperture macros list end*
%TA.AperFunction,SMDPad,CuDef*%
%ADD10RoundRect,0.150000X0.150000X-0.512500X0.150000X0.512500X-0.150000X0.512500X-0.150000X-0.512500X0*%
%TD*%
%TA.AperFunction,ComponentPad*%
%ADD11R,4.000000X4.000000*%
%TD*%
%TA.AperFunction,SMDPad,CuDef*%
%ADD12R,0.804800X0.300000*%
%TD*%
%TA.AperFunction,SMDPad,CuDef*%
%ADD13R,0.610000X2.200000*%
%TD*%
%TA.AperFunction,SMDPad,CuDef*%
%ADD14RoundRect,0.150000X0.512500X0.150000X-0.512500X0.150000X-0.512500X-0.150000X0.512500X-0.150000X0*%
%TD*%
%TA.AperFunction,SMDPad,CuDef*%
%ADD15RoundRect,0.155000X-0.212500X-0.155000X0.212500X-0.155000X0.212500X0.155000X-0.212500X0.155000X0*%
%TD*%
%TA.AperFunction,SMDPad,CuDef*%
%ADD16RoundRect,0.237500X0.237500X-0.300000X0.237500X0.300000X-0.237500X0.300000X-0.237500X-0.300000X0*%
%TD*%
%TA.AperFunction,SMDPad,CuDef*%
%ADD17RoundRect,0.250000X-0.350000X-0.450000X0.350000X-0.450000X0.350000X0.450000X-0.350000X0.450000X0*%
%TD*%
%TA.AperFunction,SMDPad,CuDef*%
%ADD18RoundRect,0.237500X-0.300000X-0.237500X0.300000X-0.237500X0.300000X0.237500X-0.300000X0.237500X0*%
%TD*%
%TA.AperFunction,SMDPad,CuDef*%
%ADD19RoundRect,0.155000X0.212500X0.155000X-0.212500X0.155000X-0.212500X-0.155000X0.212500X-0.155000X0*%
%TD*%
%TA.AperFunction,SMDPad,CuDef*%
%ADD20RoundRect,0.250000X-0.412500X-1.100000X0.412500X-1.100000X0.412500X1.100000X-0.412500X1.100000X0*%
%TD*%
%TA.AperFunction,SMDPad,CuDef*%
%ADD21RoundRect,0.155000X-0.155000X0.212500X-0.155000X-0.212500X0.155000X-0.212500X0.155000X0.212500X0*%
%TD*%
%TA.AperFunction,SMDPad,CuDef*%
%ADD22RoundRect,0.155000X0.155000X-0.212500X0.155000X0.212500X-0.155000X0.212500X-0.155000X-0.212500X0*%
%TD*%
%TA.AperFunction,SMDPad,CuDef*%
%ADD23RoundRect,0.160000X0.160000X-0.197500X0.160000X0.197500X-0.160000X0.197500X-0.160000X-0.197500X0*%
%TD*%
%TA.AperFunction,SMDPad,CuDef*%
%ADD24RoundRect,0.237500X-0.237500X0.300000X-0.237500X-0.300000X0.237500X-0.300000X0.237500X0.300000X0*%
%TD*%
%TA.AperFunction,SMDPad,CuDef*%
%ADD25Outline5P,-0.100000X0.160000X0.100000X0.160000X0.100000X-0.160000X-0.060000X-0.160000X-0.100000X-0.120000X0.000000*%
%TD*%
%TA.AperFunction,SMDPad,CuDef*%
%ADD26R,0.200000X0.320000*%
%TD*%
%TA.AperFunction,SMDPad,CuDef*%
%ADD27Outline5P,-0.100000X0.160000X0.100000X0.160000X0.100000X-0.120000X0.060000X-0.160000X-0.100000X-0.160000X0.000000*%
%TD*%
%TA.AperFunction,SMDPad,CuDef*%
%ADD28Outline5P,-0.100000X0.160000X0.060000X0.160000X0.100000X0.120000X0.100000X-0.160000X-0.100000X-0.160000X90.000000*%
%TD*%
%TA.AperFunction,SMDPad,CuDef*%
%ADD29R,0.320000X0.200000*%
%TD*%
%TA.AperFunction,SMDPad,CuDef*%
%ADD30Outline5P,-0.100000X0.120000X-0.060000X0.160000X0.100000X0.160000X0.100000X-0.160000X-0.100000X-0.160000X90.000000*%
%TD*%
%TA.AperFunction,SMDPad,CuDef*%
%ADD31Outline5P,-0.100000X0.160000X0.100000X0.160000X0.100000X-0.160000X-0.060000X-0.160000X-0.100000X-0.120000X180.000000*%
%TD*%
%TA.AperFunction,SMDPad,CuDef*%
%ADD32Outline5P,-0.100000X0.160000X0.100000X0.160000X0.100000X-0.120000X0.060000X-0.160000X-0.100000X-0.160000X180.000000*%
%TD*%
%TA.AperFunction,SMDPad,CuDef*%
%ADD33Outline5P,-0.100000X0.160000X0.060000X0.160000X0.100000X0.120000X0.100000X-0.160000X-0.100000X-0.160000X270.000000*%
%TD*%
%TA.AperFunction,SMDPad,CuDef*%
%ADD34Outline5P,-0.100000X0.120000X-0.060000X0.160000X0.100000X0.160000X0.100000X-0.160000X-0.100000X-0.160000X270.000000*%
%TD*%
%TA.AperFunction,SMDPad,CuDef*%
%ADD35Outline5P,-1.600000X1.600000X0.960000X1.600000X1.600000X0.960000X1.600000X-1.600000X-1.600000X-1.600000X0.000000*%
%TD*%
%TA.AperFunction,ComponentPad*%
%ADD36R,1.041400X1.041400*%
%TD*%
%TA.AperFunction,ComponentPad*%
%ADD37C,1.041400*%
%TD*%
%TA.AperFunction,ViaPad*%
%ADD38C,0.600000*%
%TD*%
%TA.AperFunction,Conductor*%
%ADD39C,0.304800*%
%TD*%
%TA.AperFunction,Conductor*%
%ADD40C,0.127000*%
%TD*%
%TA.AperFunction,Conductor*%
%ADD41C,0.200000*%
%TD*%
G04 APERTURE END LIST*
D10*
%TO.P,U11,1,NC*%
%TO.N,unconnected-(U11-NC-Pad1)*%
X41300000Y-92200000D03*
%TO.P,U11,2,A*%
%TO.N,/Level Shifters: SN74LV1T34DBV/A2*%
X42250000Y-92200000D03*
%TO.P,U11,3,GND*%
%TO.N,GND*%
X43200000Y-92200000D03*
%TO.P,U11,4,Y*%
%TO.N,/Level Shifters: SN74LV1T34DBV/Y2*%
X43200000Y-89925000D03*
%TO.P,U11,5,VCC*%
%TO.N,3.3V*%
X41300000Y-89925000D03*
%TD*%
D11*
%TO.P,TP68,1,1*%
%TO.N,Net-(U16-EN)*%
X244640000Y-52680000D03*
%TD*%
D10*
%TO.P,U13,1,NC*%
%TO.N,unconnected-(U13-NC-Pad1)*%
X62400000Y-64400000D03*
%TO.P,U13,2,A*%
%TO.N,/Level Shifters: SN74LV1T34DBV/A4*%
X63350000Y-64400000D03*
%TO.P,U13,3,GND*%
%TO.N,GND*%
X64300000Y-64400000D03*
%TO.P,U13,4,Y*%
%TO.N,/Level Shifters: SN74LV1T34DBV/Y4*%
X64300000Y-62125000D03*
%TO.P,U13,5,VCC*%
%TO.N,1.8V*%
X62400000Y-62125000D03*
%TD*%
D11*
%TO.P,TP20,1,1*%
%TO.N,Net-(U2-E6)*%
X71600000Y-28400000D03*
%TD*%
D12*
%TO.P,U1,1,CP*%
%TO.N,GND*%
X160895200Y-58700000D03*
%TO.P,U1,2,CM*%
%TO.N,Net-(U1-CM)*%
X160895200Y-59200000D03*
%TO.P,U1,3,GND*%
%TO.N,GND*%
X160895200Y-59700000D03*
%TO.P,U1,4,IN*%
%TO.N,3.3V*%
X160895200Y-60200000D03*
%TO.P,U1,5,OUT*%
%TO.N,1.8V*%
X162800000Y-60200000D03*
%TO.P,U1,6,ADJ*%
%TO.N,Net-(U1-ADJ)*%
X162800000Y-59700000D03*
%TO.P,U1,7,\u002ASHDN*%
%TO.N,Net-(U1-\u002ASHDN)*%
X162800000Y-59200000D03*
%TO.P,U1,8,BIAS*%
%TO.N,Net-(U1-BIAS)*%
X162800000Y-58700000D03*
D13*
%TO.P,U1,9,EPAD*%
%TO.N,GND*%
X161847600Y-59450000D03*
%TD*%
D11*
%TO.P,TP6,1,1*%
%TO.N,Net-(TP6-Pad1)*%
X102000000Y-57000000D03*
%TD*%
D14*
%TO.P,U10,1,NC*%
%TO.N,unconnected-(U10-NC-Pad1)*%
X103200000Y-76000000D03*
%TO.P,U10,2,A*%
%TO.N,/Level Shifters: SN74LV1T34DBV/A1*%
X103200000Y-75050000D03*
%TO.P,U10,3,GND*%
%TO.N,GND*%
X103200000Y-74100000D03*
%TO.P,U10,4,Y*%
%TO.N,/Level Shifters: SN74LV1T34DBV/Y1*%
X100925000Y-74100000D03*
%TO.P,U10,5,VCC*%
%TO.N,3.3V*%
X100925000Y-76000000D03*
%TD*%
D11*
%TO.P,TP16,1,1*%
%TO.N,/Level Shifters: SN74LV1T34DBV/Y4*%
X182800000Y-101200000D03*
%TD*%
%TO.P,TP3,1,1*%
%TO.N,Net-(TP3-Pad1)*%
X31600000Y-79800000D03*
%TD*%
%TO.P,TP54,1,1*%
%TO.N,Net-(U16-A4{slash}IO14)*%
X278800000Y-114000000D03*
%TD*%
%TO.P,TP8,1,1*%
%TO.N,Net-(TP8-Pad1)*%
X87800000Y-28400000D03*
%TD*%
%TO.P,TP67,1,1*%
%TO.N,Net-(U16-VBAT)*%
X244640000Y-45280000D03*
%TD*%
D15*
%TO.P,C12,1*%
%TO.N,1.8V*%
X67265000Y-60000000D03*
%TO.P,C12,2*%
%TO.N,GND*%
X68400000Y-60000000D03*
%TD*%
D11*
%TO.P,TP14,1,1*%
%TO.N,Net-(C9-Pad2)*%
X102000000Y-51000000D03*
%TD*%
D15*
%TO.P,C6,1*%
%TO.N,1.8V*%
X67265000Y-57800000D03*
%TO.P,C6,2*%
%TO.N,GND*%
X68400000Y-57800000D03*
%TD*%
D11*
%TO.P,TP4,1,1*%
%TO.N,Net-(TP4-Pad1)*%
X102000000Y-68800000D03*
%TD*%
D16*
%TO.P,C16,1*%
%TO.N,GND*%
X170137500Y-67462500D03*
%TO.P,C16,2*%
%TO.N,3.3V*%
X170137500Y-65737500D03*
%TD*%
D17*
%TO.P,R5,1*%
%TO.N,1.8V*%
X163125000Y-72800000D03*
%TO.P,R5,2*%
%TO.N,Net-(U1-ADJ)*%
X165125000Y-72800000D03*
%TD*%
%TO.P,R6,1*%
%TO.N,Net-(U1-ADJ)*%
X168125000Y-72800000D03*
%TO.P,R6,2*%
%TO.N,GND*%
X170125000Y-72800000D03*
%TD*%
D10*
%TO.P,U15,1,NC*%
%TO.N,unconnected-(U15-NC-Pad1)*%
X47600000Y-92200000D03*
%TO.P,U15,2,A*%
%TO.N,/Level Shifters: SN74LV1T34DBV/A6*%
X48550000Y-92200000D03*
%TO.P,U15,3,GND*%
%TO.N,GND*%
X49500000Y-92200000D03*
%TO.P,U15,4,Y*%
%TO.N,/Level Shifters: SN74LV1T34DBV/Y6*%
X49500000Y-89925000D03*
%TO.P,U15,5,VCC*%
%TO.N,3.3V*%
X47600000Y-89925000D03*
%TD*%
D11*
%TO.P,TP23,1,1*%
%TO.N,Net-(U2-E3)*%
X55400000Y-28400000D03*
%TD*%
%TO.P,TP59,1,1*%
%TO.N,Net-(U16-SCL{slash}IO4)*%
X268040000Y-116680000D03*
%TD*%
D14*
%TO.P,U12,1,NC*%
%TO.N,unconnected-(U12-NC-Pad1)*%
X103200000Y-82600000D03*
%TO.P,U12,2,A*%
%TO.N,/Level Shifters: SN74LV1T34DBV/A3*%
X103200000Y-81650000D03*
%TO.P,U12,3,GND*%
%TO.N,GND*%
X103200000Y-80700000D03*
%TO.P,U12,4,Y*%
%TO.N,/Level Shifters: SN74LV1T34DBV/Y3*%
X100925000Y-80700000D03*
%TO.P,U12,5,VCC*%
%TO.N,3.3V*%
X100925000Y-82600000D03*
%TD*%
D11*
%TO.P,TP28,1,1*%
%TO.N,Net-(U2-AMUXP)*%
X31600000Y-58200000D03*
%TD*%
D15*
%TO.P,C13,1*%
%TO.N,1.8V*%
X68665000Y-49000000D03*
%TO.P,C13,2*%
%TO.N,GND*%
X69800000Y-49000000D03*
%TD*%
D11*
%TO.P,TP29,1,1*%
%TO.N,Net-(U2-AMUXM)*%
X31600000Y-52800000D03*
%TD*%
%TO.P,TP2,1,1*%
%TO.N,Net-(TP2-Pad1)*%
X31600000Y-74400000D03*
%TD*%
%TO.P,TP1,1,1*%
%TO.N,Net-(TP1-Pad1)*%
X31600000Y-47400000D03*
%TD*%
%TO.P,TP75,1,1*%
%TO.N,/Level Shifters: SN74LV1T34DBV/A1*%
X268040000Y-109080000D03*
%TD*%
D18*
%TO.P,C17,1*%
%TO.N,1.8V*%
X165800000Y-77400000D03*
%TO.P,C17,2*%
%TO.N,GND*%
X167525000Y-77400000D03*
%TD*%
D11*
%TO.P,TP17,1,1*%
%TO.N,/Level Shifters: SN74LV1T34DBV/A5*%
X55000000Y-103400000D03*
%TD*%
%TO.P,TP53,1,1*%
%TO.N,Net-(U16-A3{slash}IO15)*%
X278800000Y-106600000D03*
%TD*%
%TO.P,TP7,1,1*%
%TO.N,Net-(TP7-Pad1)*%
X93200000Y-28400000D03*
%TD*%
%TO.P,TP63,1,1*%
%TO.N,Net-(U16-D13{slash}IO13)*%
X277240000Y-56680000D03*
%TD*%
%TO.P,TP13,1,1*%
%TO.N,Net-(C8-Pad2)*%
X102050000Y-44800000D03*
%TD*%
D19*
%TO.P,C19,1*%
%TO.N,1.8V*%
X53535000Y-49800000D03*
%TO.P,C19,2*%
%TO.N,GND*%
X52400000Y-49800000D03*
%TD*%
D10*
%TO.P,U14,1,NC*%
%TO.N,unconnected-(U14-NC-Pad1)*%
X54000000Y-92200000D03*
%TO.P,U14,2,A*%
%TO.N,/Level Shifters: SN74LV1T34DBV/A5*%
X54950000Y-92200000D03*
%TO.P,U14,3,GND*%
%TO.N,GND*%
X55900000Y-92200000D03*
%TO.P,U14,4,Y*%
%TO.N,/Level Shifters: SN74LV1T34DBV/Y5*%
X55900000Y-89925000D03*
%TO.P,U14,5,VCC*%
%TO.N,3.3V*%
X54000000Y-89925000D03*
%TD*%
D20*
%TO.P,C9,1*%
%TO.N,Net-(U2-REFM)*%
X92875000Y-51000000D03*
%TO.P,C9,2*%
%TO.N,Net-(C9-Pad2)*%
X96000000Y-51000000D03*
%TD*%
D11*
%TO.P,TP26,1,1*%
%TO.N,Net-(U2-DMUX0)*%
X31600000Y-69000000D03*
%TD*%
%TO.P,TP52,1,1*%
%TO.N,Net-(U16-A2{slash}IO16)*%
X278800000Y-98800000D03*
%TD*%
%TO.P,TP62,1,1*%
%TO.N,Net-(U16-D12{slash}IO12)*%
X277240000Y-64280000D03*
%TD*%
D21*
%TO.P,C11,1*%
%TO.N,1.8V*%
X57400000Y-62665000D03*
%TO.P,C11,2*%
%TO.N,GND*%
X57400000Y-63800000D03*
%TD*%
D11*
%TO.P,TP58,1,1*%
%TO.N,Net-(U16-SDA{slash}IO3)*%
X268240000Y-124880000D03*
%TD*%
%TO.P,TP74,1,1*%
%TO.N,/Level Shifters: SN74LV1T34DBV/A2*%
X253440000Y-99280000D03*
%TD*%
D22*
%TO.P,C14,1*%
%TO.N,3.3V*%
X180632500Y-70767500D03*
%TO.P,C14,2*%
%TO.N,GND*%
X180632500Y-69632500D03*
%TD*%
D15*
%TO.P,C18,1*%
%TO.N,1.8V*%
X69000000Y-50400000D03*
%TO.P,C18,2*%
%TO.N,GND*%
X70135000Y-50400000D03*
%TD*%
D11*
%TO.P,TP57,1,1*%
%TO.N,Net-(U16-TX{slash}IO39)*%
X198400000Y-122600000D03*
%TD*%
%TO.P,TP5,1,1*%
%TO.N,Net-(TP5-Pad1)*%
X102000000Y-63000000D03*
%TD*%
%TO.P,TP25,1,1*%
%TO.N,Net-(U2-E1)*%
X44600000Y-28400000D03*
%TD*%
%TO.P,TP66,1,1*%
%TO.N,Net-(U16-TXD0)*%
X206200000Y-122600000D03*
%TD*%
%TO.P,TP69,1,1*%
%TO.N,Net-(U16-VBUS{slash}USB)*%
X244640000Y-60480000D03*
%TD*%
%TO.P,TP55,1,1*%
%TO.N,Net-(U16-A5{slash}IO8)*%
X279000000Y-121600000D03*
%TD*%
D21*
%TO.P,C15,1*%
%TO.N,Net-(U1-CM)*%
X159675000Y-66265000D03*
%TO.P,C15,2*%
%TO.N,GND*%
X159675000Y-67400000D03*
%TD*%
D11*
%TO.P,TP39,1,1*%
%TO.N,Net-(U16-A0{slash}IO18)*%
X278800000Y-83600000D03*
%TD*%
%TO.P,TP64,1,1*%
%TO.N,Net-(U16-RESET)*%
X190600000Y-54800000D03*
%TD*%
%TO.P,TP60,1,1*%
%TO.N,Net-(U16-D10{slash}IO10)*%
X253640000Y-83480000D03*
%TD*%
%TO.P,TP22,1,1*%
%TO.N,Net-(U2-E4)*%
X60800000Y-28400000D03*
%TD*%
%TO.P,TP73,1,1*%
%TO.N,/Level Shifters: SN74LV1T34DBV/A3*%
X253440000Y-91480000D03*
%TD*%
%TO.P,TP21,1,1*%
%TO.N,Net-(U2-E5)*%
X66200000Y-28400000D03*
%TD*%
%TO.P,TP40,1,1*%
%TO.N,Net-(U16-A1{slash}IO17)*%
X278800000Y-91200000D03*
%TD*%
%TO.P,TP27,1,1*%
%TO.N,Net-(U2-DMUX1)*%
X31600000Y-63600000D03*
%TD*%
D23*
%TO.P,R4,1*%
%TO.N,3.3V*%
X170000000Y-63200000D03*
%TO.P,R4,2*%
%TO.N,Net-(U1-\u002ASHDN)*%
X170000000Y-62005000D03*
%TD*%
D11*
%TO.P,TP18,1,1*%
%TO.N,Net-(U2-E8)*%
X82400000Y-28400000D03*
%TD*%
%TO.P,TP19,1,1*%
%TO.N,Net-(U2-E7)*%
X77000000Y-28400000D03*
%TD*%
%TO.P,TP61,1,1*%
%TO.N,Net-(U16-D11{slash}IO11)*%
X277240000Y-71880000D03*
%TD*%
D24*
%TO.P,C10,1*%
%TO.N,Net-(U1-BIAS)*%
X164475000Y-65675000D03*
%TO.P,C10,2*%
%TO.N,GND*%
X164475000Y-67400000D03*
%TD*%
D20*
%TO.P,C8,1*%
%TO.N,Net-(U2-REFP)*%
X92925000Y-44800000D03*
%TO.P,C8,2*%
%TO.N,Net-(C8-Pad2)*%
X96050000Y-44800000D03*
%TD*%
D25*
%TO.P,U2,1,NC*%
%TO.N,Net-(TP9-Pad1)*%
X61300000Y-48810000D03*
%TO.P,U2,2,E1*%
%TO.N,Net-(U2-E1)*%
X61700000Y-48810000D03*
%TO.P,U2,3,E2*%
%TO.N,Net-(U2-E2)*%
X62100000Y-48810000D03*
%TO.P,U2,4,E3*%
%TO.N,Net-(U2-E3)*%
X62500000Y-48810000D03*
D26*
%TO.P,U2,5,E4*%
%TO.N,Net-(U2-E4)*%
X62900000Y-48810000D03*
%TO.P,U2,6,E5*%
%TO.N,Net-(U2-E5)*%
X63300000Y-48810000D03*
D27*
%TO.P,U2,7,E6*%
%TO.N,Net-(U2-E6)*%
X63700000Y-48810000D03*
%TO.P,U2,8,E7*%
%TO.N,Net-(U2-E7)*%
X64100000Y-48810000D03*
%TO.P,U2,9,E8*%
%TO.N,Net-(U2-E8)*%
X64500000Y-48810000D03*
%TO.P,U2,10,NC*%
%TO.N,Net-(TP8-Pad1)*%
X64900000Y-48810000D03*
D28*
%TO.P,U2,11,NC*%
%TO.N,Net-(TP7-Pad1)*%
X65390000Y-49300000D03*
%TO.P,U2,12,AVSS*%
%TO.N,GND*%
X65390000Y-49700000D03*
%TO.P,U2,13,AVSSQ*%
X65390000Y-50100000D03*
%TO.P,U2,14,AVDDQ*%
%TO.N,1.8V*%
X65390000Y-50500000D03*
D29*
%TO.P,U2,15,AVDD*%
X65390000Y-50900000D03*
%TO.P,U2,16,REFP*%
%TO.N,Net-(U2-REFP)*%
X65390000Y-51300000D03*
D30*
%TO.P,U2,17,REFM*%
%TO.N,Net-(U2-REFM)*%
X65390000Y-51700000D03*
%TO.P,U2,18,NC*%
%TO.N,Net-(TP6-Pad1)*%
X65390000Y-52100000D03*
%TO.P,U2,19,AVSS*%
%TO.N,GND*%
X65390000Y-52500000D03*
%TO.P,U2,20,NC*%
%TO.N,Net-(TP5-Pad1)*%
X65390000Y-52900000D03*
D31*
%TO.P,U2,21,NC*%
%TO.N,Net-(TP4-Pad1)*%
X64900000Y-53390000D03*
%TO.P,U2,22,RSTN*%
%TO.N,/Level Shifters: SN74LV1T34DBV/Y1*%
X64500000Y-53390000D03*
%TO.P,U2,23,CLK*%
%TO.N,/Level Shifters: SN74LV1T34DBV/Y3*%
X64100000Y-53390000D03*
%TO.P,U2,24,AVSS*%
%TO.N,GND*%
X63700000Y-53390000D03*
D26*
%TO.P,U2,25,S0*%
%TO.N,/Level Shifters: SN74LV1T34DBV/A4*%
X63300000Y-53390000D03*
D32*
%TO.P,U2,26,SI*%
%TO.N,/Level Shifters: SN74LV1T34DBV/Y5*%
X62500000Y-53390000D03*
%TO.P,U2,27,SCK*%
%TO.N,/Level Shifters: SN74LV1T34DBV/Y6*%
X62100000Y-53390000D03*
%TO.P,U2,28,CSN*%
%TO.N,/Level Shifters: SN74LV1T34DBV/Y2*%
X61700000Y-53390000D03*
D26*
%TO.P,U2,29,DVDD*%
%TO.N,1.8V*%
X62900000Y-53390000D03*
D32*
%TO.P,U2,30,NC*%
%TO.N,Net-(TP3-Pad1)*%
X61300000Y-53390000D03*
D33*
%TO.P,U2,31,NC*%
%TO.N,Net-(TP2-Pad1)*%
X60810000Y-52900000D03*
%TO.P,U2,32,DVSS*%
%TO.N,GND*%
X60810000Y-52500000D03*
%TO.P,U2,33,DMUX0*%
%TO.N,Net-(U2-DMUX0)*%
X60810000Y-52100000D03*
%TO.P,U2,34,DMUX1*%
%TO.N,Net-(U2-DMUX1)*%
X60810000Y-51700000D03*
D29*
%TO.P,U2,35,AVSS*%
%TO.N,GND*%
X60810000Y-51300000D03*
%TO.P,U2,36,AMUXP*%
%TO.N,Net-(U2-AMUXP)*%
X60810000Y-50900000D03*
D34*
%TO.P,U2,37,AMUXM*%
%TO.N,Net-(U2-AMUXM)*%
X60810000Y-50500000D03*
%TO.P,U2,38,AVDD*%
%TO.N,1.8V*%
X60810000Y-50100000D03*
%TO.P,U2,39,AVSS*%
%TO.N,GND*%
X60810000Y-49700000D03*
%TO.P,U2,40,NC*%
%TO.N,Net-(TP1-Pad1)*%
X60810000Y-49300000D03*
D35*
%TO.P,U2,41,PAD*%
%TO.N,GND*%
X63100000Y-51100000D03*
%TD*%
D36*
%TO.P,U16,1,RESET*%
%TO.N,Net-(U16-RESET)*%
X190640000Y-67480000D03*
D37*
%TO.P,U16,2,3.3V*%
%TO.N,3.3V*%
X190640000Y-70020000D03*
%TO.P,U16,3,3.3V*%
X190640000Y-72560000D03*
%TO.P,U16,4,GND*%
%TO.N,GND*%
X190640000Y-75100000D03*
%TO.P,U16,5,A0/IO18*%
%TO.N,Net-(U16-A0{slash}IO18)*%
X190640000Y-77640000D03*
%TO.P,U16,6,A1/IO17*%
%TO.N,Net-(U16-A1{slash}IO17)*%
X190640000Y-80180000D03*
%TO.P,U16,7,A2/IO16*%
%TO.N,Net-(U16-A2{slash}IO16)*%
X190640000Y-82720000D03*
%TO.P,U16,8,A3/IO15*%
%TO.N,Net-(U16-A3{slash}IO15)*%
X190640000Y-85260000D03*
%TO.P,U16,9,A4/IO14*%
%TO.N,Net-(U16-A4{slash}IO14)*%
X190640000Y-87800000D03*
%TO.P,U16,10,A5/IO8*%
%TO.N,Net-(U16-A5{slash}IO8)*%
X190640000Y-90340000D03*
%TO.P,U16,11,SCK/IO36*%
%TO.N,/Level Shifters: SN74LV1T34DBV/A6*%
X190640000Y-92880000D03*
%TO.P,U16,12,MOSI/IO35*%
%TO.N,/Level Shifters: SN74LV1T34DBV/A5*%
X190640000Y-95420000D03*
%TO.P,U16,13,MISO/IO37*%
%TO.N,/Level Shifters: SN74LV1T34DBV/Y4*%
X190640000Y-97960000D03*
%TO.P,U16,14,RX/IO38*%
%TO.N,Net-(U16-RX{slash}IO38)*%
X190640000Y-100500000D03*
%TO.P,U16,15,TX/IO39*%
%TO.N,Net-(U16-TX{slash}IO39)*%
X190640000Y-103040000D03*
%TO.P,U16,16,TXD0*%
%TO.N,Net-(U16-TXD0)*%
X190640000Y-105580000D03*
%TO.P,U16,17,SDA/IO3*%
%TO.N,Net-(U16-SDA{slash}IO3)*%
X210960000Y-105580000D03*
%TO.P,U16,18,SCL/IO4*%
%TO.N,Net-(U16-SCL{slash}IO4)*%
X210960000Y-103040000D03*
%TO.P,U16,19,D5/IO5*%
%TO.N,/Level Shifters: SN74LV1T34DBV/A1*%
X210960000Y-100500000D03*
%TO.P,U16,20,D6/IO6*%
%TO.N,/Level Shifters: SN74LV1T34DBV/A2*%
X210960000Y-97960000D03*
%TO.P,U16,21,D9/IO9*%
%TO.N,/Level Shifters: SN74LV1T34DBV/A3*%
X210960000Y-95420000D03*
%TO.P,U16,22,D10/IO10*%
%TO.N,Net-(U16-D10{slash}IO10)*%
X210960000Y-92880000D03*
%TO.P,U16,23,D11/IO11*%
%TO.N,Net-(U16-D11{slash}IO11)*%
X210960000Y-90340000D03*
%TO.P,U16,24,D12/IO12*%
%TO.N,Net-(U16-D12{slash}IO12)*%
X210960000Y-87800000D03*
%TO.P,U16,25,D13/IO13*%
%TO.N,Net-(U16-D13{slash}IO13)*%
X210960000Y-85260000D03*
%TO.P,U16,26,VBUS/USB*%
%TO.N,Net-(U16-VBUS{slash}USB)*%
X210960000Y-82720000D03*
%TO.P,U16,27,EN*%
%TO.N,Net-(U16-EN)*%
X210960000Y-80180000D03*
%TO.P,U16,28,VBAT*%
%TO.N,Net-(U16-VBAT)*%
X210960000Y-77640000D03*
%TD*%
D11*
%TO.P,TP56,1,1*%
%TO.N,Net-(U16-RX{slash}IO38)*%
X191200000Y-122600000D03*
%TD*%
%TO.P,TP38,1,1*%
%TO.N,/Level Shifters: SN74LV1T34DBV/A6*%
X48000000Y-103400000D03*
%TD*%
%TO.P,TP9,1,1*%
%TO.N,Net-(TP9-Pad1)*%
X39200000Y-28400000D03*
%TD*%
%TO.P,TP24,1,1*%
%TO.N,Net-(U2-E2)*%
X50000000Y-28400000D03*
%TD*%
D38*
%TO.N,1.8V*%
X62600000Y-55400000D03*
X55200000Y-49800000D03*
X163400000Y-76400000D03*
X57800000Y-49400000D03*
X57400000Y-61000000D03*
X160600000Y-74000000D03*
X60200000Y-61400000D03*
X65600000Y-60000000D03*
X66800000Y-50000000D03*
X67800000Y-50200000D03*
%TO.N,GND*%
X51000000Y-49800000D03*
X171400000Y-75600000D03*
X64200000Y-55200000D03*
X170000000Y-77400000D03*
X71200000Y-49000000D03*
X58600000Y-48800000D03*
X45000000Y-92200000D03*
X105600000Y-80200000D03*
X69800000Y-57800000D03*
X105400000Y-73400000D03*
X69800000Y-60000000D03*
X57400000Y-92200000D03*
X162200000Y-66600000D03*
X172600000Y-68400000D03*
X57400000Y-65200000D03*
X51000000Y-92200000D03*
X72200000Y-50400000D03*
X67800000Y-48200000D03*
X67000000Y-49200000D03*
X157400000Y-66600000D03*
X66000000Y-64400000D03*
%TO.N,Net-(U1-BIAS)*%
X165600000Y-63200000D03*
X167600000Y-60200000D03*
%TO.N,3.3V*%
X42000000Y-87200000D03*
X52000000Y-87200000D03*
X94400000Y-81200000D03*
X104800000Y-77600000D03*
X46200000Y-87200000D03*
X167000000Y-66400000D03*
X163000000Y-64200000D03*
X173800000Y-66000000D03*
%TO.N,/Level Shifters: SN74LV1T34DBV/A5*%
X54400000Y-94400000D03*
%TO.N,/Level Shifters: SN74LV1T34DBV/A6*%
X48800000Y-95800000D03*
X48000000Y-94600000D03*
%TO.N,/Level Shifters: SN74LV1T34DBV/A3*%
X176200000Y-89400000D03*
%TO.N,/Level Shifters: SN74LV1T34DBV/A2*%
X183400000Y-117200000D03*
%TO.N,/Level Shifters: SN74LV1T34DBV/A1*%
X108000000Y-76600000D03*
X186400000Y-96000000D03*
X183000000Y-84000000D03*
%TO.N,/Level Shifters: SN74LV1T34DBV/Y3*%
X97000000Y-77600000D03*
X100000000Y-78800000D03*
%TO.N,/Level Shifters: SN74LV1T34DBV/A4*%
X62600000Y-66200000D03*
X63000000Y-60000000D03*
%TD*%
D39*
%TO.N,3.3V*%
X160892800Y-60202400D02*
X160895200Y-60202400D01*
D40*
X160800000Y-60295200D02*
X160892800Y-60202400D01*
D39*
X160800000Y-62000000D02*
X160800000Y-60295200D01*
X163000000Y-64200000D02*
X160800000Y-62000000D01*
X190640000Y-70020000D02*
X190640000Y-72560000D01*
%TO.N,GND*%
X174232500Y-69632500D02*
X180632500Y-69632500D01*
X173000000Y-68400000D02*
X174232500Y-69632500D01*
X172600000Y-68400000D02*
X173000000Y-68400000D01*
D41*
%TO.N,1.8V*%
X62400000Y-62125000D02*
X61675000Y-61400000D01*
X165800000Y-77400000D02*
X164400000Y-77400000D01*
X62600000Y-55800000D02*
X57400000Y-61000000D01*
X66300000Y-50500000D02*
X66800000Y-50000000D01*
X68200000Y-49000000D02*
X68665000Y-49000000D01*
X64800000Y-60800000D02*
X65600000Y-60000000D01*
X65600000Y-58400000D02*
X66200000Y-57800000D01*
X57400000Y-62665000D02*
X57400000Y-61000000D01*
X163700000Y-66254222D02*
X164008278Y-66562500D01*
X164008278Y-66562500D02*
X164941722Y-66562500D01*
X163700000Y-61100000D02*
X163700000Y-66254222D01*
X164941722Y-66562500D02*
X165400000Y-67020778D01*
X55600000Y-49400000D02*
X55200000Y-49800000D01*
X66800000Y-50000000D02*
X67200000Y-50000000D01*
X68800000Y-50200000D02*
X69000000Y-50400000D01*
X53535000Y-49800000D02*
X55200000Y-49800000D01*
X62900000Y-53390000D02*
X62900000Y-55100000D01*
X58500000Y-50100000D02*
X57800000Y-49400000D01*
X165400000Y-70525000D02*
X163125000Y-72800000D01*
X163125000Y-72800000D02*
X161800000Y-72800000D01*
X165400000Y-67020778D02*
X165400000Y-70525000D01*
X60810000Y-50100000D02*
X58500000Y-50100000D01*
X162800000Y-60200000D02*
X163700000Y-61100000D01*
X67265000Y-60000000D02*
X65600000Y-60000000D01*
X65390000Y-50500000D02*
X66300000Y-50500000D01*
X61675000Y-61400000D02*
X60200000Y-61400000D01*
X67200000Y-50000000D02*
X68200000Y-49000000D01*
X60800000Y-60800000D02*
X64800000Y-60800000D01*
X57800000Y-49400000D02*
X55600000Y-49400000D01*
X67800000Y-50200000D02*
X68800000Y-50200000D01*
X60200000Y-61400000D02*
X60800000Y-60800000D01*
X62900000Y-55100000D02*
X62600000Y-55400000D01*
X65600000Y-60000000D02*
X65600000Y-58400000D01*
X161800000Y-72800000D02*
X160600000Y-74000000D01*
X62600000Y-55400000D02*
X62600000Y-55800000D01*
X164400000Y-77400000D02*
X163400000Y-76400000D01*
X65390000Y-50900000D02*
X67100000Y-50900000D01*
X66200000Y-57800000D02*
X67265000Y-57800000D01*
X67100000Y-50900000D02*
X67800000Y-50200000D01*
%TO.N,GND*%
X161847600Y-59450000D02*
X161597600Y-59700000D01*
X164537500Y-67462500D02*
X164475000Y-67400000D01*
X68400000Y-57800000D02*
X69800000Y-57800000D01*
X161847600Y-59000000D02*
X161547600Y-58700000D01*
X66375736Y-49575735D02*
X66751471Y-49200000D01*
X160192800Y-59815686D02*
X160308486Y-59700000D01*
X170125000Y-72800000D02*
X170125000Y-72275000D01*
X161547600Y-58700000D02*
X160895200Y-58700000D01*
X159675000Y-67400000D02*
X161400000Y-67400000D01*
X160308486Y-59700000D02*
X160895200Y-59700000D01*
X60810000Y-49700000D02*
X59500000Y-49700000D01*
X59500000Y-49700000D02*
X58600000Y-48800000D01*
X65390000Y-49700000D02*
X65700000Y-49700000D01*
X60810000Y-49700000D02*
X61700000Y-49700000D01*
X64300000Y-64400000D02*
X66000000Y-64400000D01*
X163000000Y-67400000D02*
X162200000Y-66600000D01*
X63700000Y-54700000D02*
X64200000Y-55200000D01*
X64500000Y-52500000D02*
X63100000Y-51100000D01*
X66400000Y-49000000D02*
X67200000Y-48200000D01*
X159675000Y-67400000D02*
X158200000Y-67400000D01*
X105100000Y-80700000D02*
X105600000Y-80200000D01*
X61700000Y-49700000D02*
X63100000Y-51100000D01*
X164475000Y-67400000D02*
X163000000Y-67400000D01*
X170125000Y-72275000D02*
X170137500Y-72262500D01*
X103200000Y-80700000D02*
X105100000Y-80700000D01*
X65851471Y-50100000D02*
X66375736Y-49575735D01*
X55900000Y-92200000D02*
X57400000Y-92200000D01*
X63700000Y-53390000D02*
X63700000Y-54700000D01*
X104700000Y-74100000D02*
X105400000Y-73400000D01*
X52400000Y-49800000D02*
X51000000Y-49800000D01*
X161847600Y-59450000D02*
X161847600Y-59000000D01*
X162200000Y-66600000D02*
X160192800Y-64592800D01*
X69800000Y-49000000D02*
X71200000Y-49000000D01*
X170125000Y-74325000D02*
X171400000Y-75600000D01*
X70135000Y-50400000D02*
X72200000Y-50400000D01*
X66751471Y-49200000D02*
X67000000Y-49200000D01*
X160192800Y-64592800D02*
X160192800Y-59815686D01*
X60810000Y-52500000D02*
X61700000Y-52500000D01*
X161597600Y-59700000D02*
X160895200Y-59700000D01*
X49500000Y-92200000D02*
X51000000Y-92200000D01*
X62900000Y-51300000D02*
X63100000Y-51100000D01*
X103200000Y-74100000D02*
X104700000Y-74100000D01*
X167525000Y-77400000D02*
X170000000Y-77400000D01*
X170125000Y-72800000D02*
X170125000Y-74325000D01*
X65390000Y-50100000D02*
X65851471Y-50100000D01*
X161400000Y-67400000D02*
X162200000Y-66600000D01*
X158200000Y-67400000D02*
X157400000Y-66600000D01*
X43200000Y-92200000D02*
X45000000Y-92200000D01*
X68400000Y-60000000D02*
X69800000Y-60000000D01*
X61700000Y-52500000D02*
X63100000Y-51100000D01*
X65700000Y-49700000D02*
X66400000Y-49000000D01*
X57400000Y-63800000D02*
X57400000Y-65200000D01*
X60810000Y-51300000D02*
X62900000Y-51300000D01*
D39*
X170137500Y-67462500D02*
X171662500Y-67462500D01*
D41*
X65390000Y-52500000D02*
X64500000Y-52500000D01*
D39*
X171662500Y-67462500D02*
X172600000Y-68400000D01*
D41*
X67200000Y-48200000D02*
X67800000Y-48200000D01*
%TO.N,Net-(C8-Pad2)*%
X102050000Y-44800000D02*
X96050000Y-44800000D01*
%TO.N,Net-(U2-REFP)*%
X65390000Y-51300000D02*
X78300000Y-51300000D01*
X84800000Y-44800000D02*
X92925000Y-44800000D01*
X78300000Y-51300000D02*
X84800000Y-44800000D01*
%TO.N,Net-(U2-REFM)*%
X65390000Y-51700000D02*
X87700000Y-51700000D01*
X87700000Y-51700000D02*
X88400000Y-51000000D01*
X88400000Y-51000000D02*
X92875000Y-51000000D01*
%TO.N,Net-(C9-Pad2)*%
X102000000Y-51000000D02*
X96000000Y-51000000D01*
%TO.N,Net-(U1-BIAS)*%
X162800000Y-58700000D02*
X166100000Y-58700000D01*
X166100000Y-58700000D02*
X167600000Y-60200000D01*
X165600000Y-63200000D02*
X164475000Y-64325000D01*
X164475000Y-64325000D02*
X164475000Y-65675000D01*
D39*
%TO.N,3.3V*%
X182425000Y-72560000D02*
X180632500Y-70767500D01*
X190640000Y-72560000D02*
X182425000Y-72560000D01*
D41*
%TO.N,Net-(U1-CM)*%
X160895200Y-59200000D02*
X160242800Y-59200000D01*
X160242800Y-59200000D02*
X159675000Y-59767800D01*
X159675000Y-59767800D02*
X159675000Y-66265000D01*
D39*
%TO.N,3.3V*%
X41300000Y-87900000D02*
X42000000Y-87200000D01*
X98400000Y-81200000D02*
X98400000Y-76800000D01*
X54000000Y-88000000D02*
X54000000Y-89925000D01*
X167662500Y-65737500D02*
X167000000Y-66400000D01*
X170137500Y-63337500D02*
X170000000Y-63200000D01*
X100925000Y-82600000D02*
X99800000Y-82600000D01*
X101400000Y-78000000D02*
X100925000Y-77525000D01*
X94400000Y-81200000D02*
X98400000Y-81200000D01*
X173200000Y-66000000D02*
X172937500Y-65737500D01*
X173800000Y-66000000D02*
X173200000Y-66000000D01*
X170137500Y-65737500D02*
X167662500Y-65737500D01*
X98400000Y-76800000D02*
X99200000Y-76000000D01*
X99800000Y-82600000D02*
X98400000Y-81200000D01*
X172937500Y-65737500D02*
X170137500Y-65737500D01*
X41300000Y-89925000D02*
X41300000Y-87900000D01*
X53200000Y-87200000D02*
X54000000Y-88000000D01*
X170137500Y-65737500D02*
X170137500Y-63337500D01*
X99200000Y-76000000D02*
X100925000Y-76000000D01*
X104800000Y-77600000D02*
X104400000Y-78000000D01*
X104400000Y-78000000D02*
X101400000Y-78000000D01*
X52000000Y-87200000D02*
X53200000Y-87200000D01*
X100925000Y-77525000D02*
X100925000Y-76000000D01*
X46200000Y-87200000D02*
X47600000Y-88600000D01*
X47600000Y-88600000D02*
X47600000Y-89925000D01*
D41*
%TO.N,Net-(U1-\u002ASHDN)*%
X165000000Y-59200000D02*
X167805000Y-62005000D01*
X162800000Y-59200000D02*
X165000000Y-59200000D01*
X167805000Y-62005000D02*
X170000000Y-62005000D01*
%TO.N,Net-(U1-ADJ)*%
X166800000Y-72800000D02*
X165125000Y-72800000D01*
X163452400Y-59700000D02*
X166313971Y-62561571D01*
X166313971Y-72313971D02*
X166800000Y-72800000D01*
X166313971Y-62561571D02*
X166313971Y-72313971D01*
X162800000Y-59700000D02*
X163452400Y-59700000D01*
X168125000Y-72800000D02*
X166800000Y-72800000D01*
%TO.N,Net-(TP1-Pad1)*%
X58910000Y-47400000D02*
X60810000Y-49300000D01*
X31600000Y-47400000D02*
X58910000Y-47400000D01*
%TO.N,Net-(TP2-Pad1)*%
X31600000Y-74400000D02*
X37800000Y-74400000D01*
X59300000Y-52900000D02*
X60810000Y-52900000D01*
X37800000Y-74400000D02*
X59300000Y-52900000D01*
%TO.N,Net-(TP3-Pad1)*%
X61300000Y-53390000D02*
X34890000Y-79800000D01*
X34890000Y-79800000D02*
X31600000Y-79800000D01*
D40*
%TO.N,Net-(TP4-Pad1)*%
X65700000Y-54200000D02*
X83800000Y-54200000D01*
X83800000Y-54200000D02*
X98400000Y-68800000D01*
X98400000Y-68800000D02*
X102000000Y-68800000D01*
X64890000Y-53390000D02*
X65700000Y-54200000D01*
D41*
%TO.N,Net-(TP5-Pad1)*%
X65390000Y-52900000D02*
X87500000Y-52900000D01*
X87500000Y-52900000D02*
X97600000Y-63000000D01*
X97600000Y-63000000D02*
X102000000Y-63000000D01*
%TO.N,Net-(TP6-Pad1)*%
X94000000Y-57000000D02*
X102000000Y-57000000D01*
X89100000Y-52100000D02*
X94000000Y-57000000D01*
X65390000Y-52100000D02*
X89100000Y-52100000D01*
%TO.N,Net-(TP7-Pad1)*%
X65390000Y-49300000D02*
X73290000Y-41400000D01*
X93200000Y-34800000D02*
X93200000Y-28400000D01*
X86600000Y-41400000D02*
X93200000Y-34800000D01*
X73290000Y-41400000D02*
X86600000Y-41400000D01*
%TO.N,Net-(TP8-Pad1)*%
X72710000Y-41000000D02*
X64900000Y-48810000D01*
X84800000Y-41000000D02*
X72710000Y-41000000D01*
X87800000Y-28400000D02*
X87800000Y-38000000D01*
X87800000Y-38000000D02*
X84800000Y-41000000D01*
%TO.N,Net-(TP9-Pad1)*%
X53290000Y-40800000D02*
X42400000Y-40800000D01*
X39200000Y-37600000D02*
X39200000Y-28400000D01*
X61300000Y-48810000D02*
X53290000Y-40800000D01*
X42400000Y-40800000D02*
X39200000Y-37600000D01*
%TO.N,/Level Shifters: SN74LV1T34DBV/Y4*%
X190640000Y-97960000D02*
X188240000Y-97960000D01*
X108000000Y-101200000D02*
X69200000Y-62400000D01*
X186800000Y-99400000D02*
X186800000Y-100400000D01*
X182800000Y-101200000D02*
X108000000Y-101200000D01*
X186800000Y-100400000D02*
X186000000Y-101200000D01*
X188240000Y-97960000D02*
X186800000Y-99400000D01*
X64300000Y-62125000D02*
X68925000Y-62125000D01*
X186000000Y-101200000D02*
X182800000Y-101200000D01*
X68925000Y-62125000D02*
X69200000Y-62400000D01*
%TO.N,/Level Shifters: SN74LV1T34DBV/A5*%
X54950000Y-93850000D02*
X54400000Y-94400000D01*
X54950000Y-92200000D02*
X54950000Y-93850000D01*
%TO.N,Net-(U2-E8)*%
X72425736Y-40600000D02*
X78000000Y-40600000D01*
X82400000Y-36200000D02*
X82400000Y-28400000D01*
X78000000Y-40600000D02*
X82400000Y-36200000D01*
X64500000Y-48810000D02*
X64500000Y-48525736D01*
X64500000Y-48525736D02*
X72425736Y-40600000D01*
%TO.N,Net-(U2-E7)*%
X77000000Y-37400000D02*
X77000000Y-28400000D01*
X64100000Y-48810000D02*
X64100000Y-48360050D01*
X64100000Y-48360050D02*
X72260050Y-40200000D01*
X72260050Y-40200000D02*
X74200000Y-40200000D01*
X74200000Y-40200000D02*
X77000000Y-37400000D01*
%TO.N,Net-(U2-E6)*%
X71600000Y-40294364D02*
X71600000Y-28400000D01*
X63700000Y-48810000D02*
X63700000Y-48194364D01*
X63700000Y-48194364D02*
X71600000Y-40294364D01*
%TO.N,Net-(U2-E5)*%
X66200000Y-28400000D02*
X66200000Y-45128678D01*
X63300000Y-48028678D02*
X63300000Y-48810000D01*
X66200000Y-45128678D02*
X63300000Y-48028678D01*
%TO.N,Net-(U2-E4)*%
X60800000Y-28400000D02*
X60800000Y-45928678D01*
X62900000Y-48028678D02*
X62900000Y-48810000D01*
X60800000Y-45928678D02*
X62900000Y-48028678D01*
%TO.N,Net-(U2-E3)*%
X55400000Y-41094364D02*
X62500000Y-48194364D01*
X55400000Y-28400000D02*
X55400000Y-41094364D01*
X62500000Y-48194364D02*
X62500000Y-48810000D01*
%TO.N,Net-(U2-E2)*%
X52000000Y-40000000D02*
X53739950Y-40000000D01*
X53739950Y-40000000D02*
X62100000Y-48360050D01*
X62100000Y-48360050D02*
X62100000Y-48810000D01*
X50000000Y-28400000D02*
X50000000Y-38000000D01*
X50000000Y-38000000D02*
X52000000Y-40000000D01*
%TO.N,Net-(U2-E1)*%
X44600000Y-38000000D02*
X47000000Y-40400000D01*
X53574264Y-40400000D02*
X61700000Y-48525736D01*
X44600000Y-28400000D02*
X44600000Y-38000000D01*
X61700000Y-48525736D02*
X61700000Y-48810000D01*
X47000000Y-40400000D02*
X53574264Y-40400000D01*
%TO.N,Net-(U2-DMUX0)*%
X31600000Y-69000000D02*
X42634314Y-69000000D01*
X42634314Y-69000000D02*
X59534314Y-52100000D01*
X59534314Y-52100000D02*
X60810000Y-52100000D01*
%TO.N,Net-(U2-DMUX1)*%
X59368628Y-51700000D02*
X60810000Y-51700000D01*
X31600000Y-63600000D02*
X47468628Y-63600000D01*
X47468628Y-63600000D02*
X59368628Y-51700000D01*
%TO.N,Net-(U2-AMUXP)*%
X52302942Y-58200000D02*
X59602942Y-50900000D01*
X31600000Y-58200000D02*
X52302942Y-58200000D01*
X59602942Y-50900000D02*
X60810000Y-50900000D01*
%TO.N,Net-(U2-AMUXM)*%
X57137256Y-52800000D02*
X59437256Y-50500000D01*
X31600000Y-52800000D02*
X57137256Y-52800000D01*
X59437256Y-50500000D02*
X60810000Y-50500000D01*
%TO.N,/Level Shifters: SN74LV1T34DBV/A6*%
X48550000Y-92200000D02*
X48550000Y-94050000D01*
X48800000Y-94300000D02*
X48550000Y-94050000D01*
X48800000Y-95800000D02*
X48800000Y-94300000D01*
X48550000Y-94050000D02*
X48000000Y-94600000D01*
%TO.N,Net-(U16-RX{slash}IO38)*%
X187800000Y-113400000D02*
X190200000Y-113400000D01*
X190200000Y-113400000D02*
X191200000Y-114400000D01*
X188300000Y-100500000D02*
X187600000Y-101200000D01*
X191200000Y-114400000D02*
X191200000Y-122600000D01*
X190640000Y-100500000D02*
X188300000Y-100500000D01*
X187600000Y-101200000D02*
X187600000Y-113200000D01*
X187600000Y-113200000D02*
X187800000Y-113400000D01*
%TO.N,Net-(U16-TX{slash}IO39)*%
X198400000Y-113800000D02*
X198400000Y-122600000D01*
X188400000Y-103400000D02*
X188400000Y-112000000D01*
X196800000Y-112200000D02*
X198400000Y-113800000D01*
X188400000Y-112000000D02*
X188600000Y-112200000D01*
X190640000Y-103040000D02*
X188760000Y-103040000D01*
X188760000Y-103040000D02*
X188400000Y-103400000D01*
X188600000Y-112200000D02*
X196800000Y-112200000D01*
%TO.N,Net-(U16-SDA{slash}IO3)*%
X210960000Y-105580000D02*
X219740000Y-105580000D01*
X239040000Y-124880000D02*
X268240000Y-124880000D01*
X219740000Y-105580000D02*
X239040000Y-124880000D01*
%TO.N,Net-(U16-SCL{slash}IO4)*%
X210960000Y-103040000D02*
X220200000Y-103040000D01*
X233840000Y-116680000D02*
X268040000Y-116680000D01*
X220200000Y-103040000D02*
X233840000Y-116680000D01*
%TO.N,Net-(U16-D10{slash}IO10)*%
X210960000Y-92880000D02*
X235240000Y-92880000D01*
X244640000Y-83480000D02*
X253640000Y-83480000D01*
X235240000Y-92880000D02*
X244640000Y-83480000D01*
%TO.N,Net-(U16-D11{slash}IO11)*%
X210960000Y-90340000D02*
X232780000Y-90340000D01*
X232780000Y-90340000D02*
X251240000Y-71880000D01*
X251240000Y-71880000D02*
X277240000Y-71880000D01*
%TO.N,Net-(U16-D12{slash}IO12)*%
X255840000Y-64280000D02*
X277240000Y-64280000D01*
X210960000Y-87800000D02*
X232320000Y-87800000D01*
X232320000Y-87800000D02*
X255840000Y-64280000D01*
%TO.N,Net-(U16-D13{slash}IO13)*%
X210960000Y-85260000D02*
X231660000Y-85260000D01*
X260240000Y-56680000D02*
X277240000Y-56680000D01*
X231660000Y-85260000D02*
X260240000Y-56680000D01*
%TO.N,Net-(U16-RESET)*%
X188400000Y-59000000D02*
X190000000Y-59000000D01*
X187800000Y-59600000D02*
X188400000Y-59000000D01*
X190600000Y-58400000D02*
X190600000Y-54800000D01*
X188880000Y-67480000D02*
X187800000Y-66400000D01*
X190640000Y-67480000D02*
X188880000Y-67480000D01*
X190000000Y-59000000D02*
X190600000Y-58400000D01*
X187800000Y-66400000D02*
X187800000Y-59600000D01*
%TO.N,Net-(U16-TXD0)*%
X190640000Y-105580000D02*
X190640000Y-111240000D01*
X203400000Y-111400000D02*
X206200000Y-114200000D01*
X206200000Y-114200000D02*
X206200000Y-122600000D01*
X190800000Y-111400000D02*
X203400000Y-111400000D01*
X190640000Y-111240000D02*
X190800000Y-111400000D01*
%TO.N,Net-(U16-VBAT)*%
X244640000Y-45280000D02*
X239240000Y-45280000D01*
X222440000Y-62080000D02*
X222440000Y-68680000D01*
X239240000Y-45280000D02*
X222440000Y-62080000D01*
X222440000Y-68680000D02*
X213480000Y-77640000D01*
X213480000Y-77640000D02*
X210960000Y-77640000D01*
%TO.N,Net-(U16-EN)*%
X213740000Y-80180000D02*
X241240000Y-52680000D01*
X241240000Y-52680000D02*
X244640000Y-52680000D01*
X210960000Y-80180000D02*
X213740000Y-80180000D01*
%TO.N,Net-(U16-VBUS{slash}USB)*%
X210960000Y-82720000D02*
X217000000Y-82720000D01*
X239240000Y-60480000D02*
X244640000Y-60480000D01*
X217000000Y-82720000D02*
X239240000Y-60480000D01*
%TO.N,/Level Shifters: SN74LV1T34DBV/A3*%
X210960000Y-95420000D02*
X236100000Y-95420000D01*
X168450000Y-81650000D02*
X176200000Y-89400000D01*
X240040000Y-91480000D02*
X253440000Y-91480000D01*
X103200000Y-81650000D02*
X168450000Y-81650000D01*
X236100000Y-95420000D02*
X240040000Y-91480000D01*
%TO.N,/Level Shifters: SN74LV1T34DBV/A2*%
X180400000Y-120200000D02*
X183400000Y-117200000D01*
X210960000Y-97960000D02*
X239920000Y-97960000D01*
X42250000Y-118450000D02*
X44000000Y-120200000D01*
X44000000Y-120200000D02*
X180400000Y-120200000D01*
X42250000Y-92200000D02*
X42250000Y-118450000D01*
X241240000Y-99280000D02*
X253440000Y-99280000D01*
X239920000Y-97960000D02*
X241240000Y-99280000D01*
%TO.N,/Level Shifters: SN74LV1T34DBV/A1*%
X106450000Y-75050000D02*
X108000000Y-76600000D01*
X103200000Y-75050000D02*
X106450000Y-75050000D01*
X186400000Y-87400000D02*
X183000000Y-84000000D01*
X210960000Y-100500000D02*
X221260000Y-100500000D01*
X229840000Y-109080000D02*
X268040000Y-109080000D01*
X221260000Y-100500000D02*
X229840000Y-109080000D01*
X186400000Y-96000000D02*
X186400000Y-87400000D01*
D40*
%TO.N,/Level Shifters: SN74LV1T34DBV/Y1*%
X64490000Y-53674264D02*
X64490000Y-53390000D01*
X100925000Y-74100000D02*
X81625000Y-54800000D01*
X65615736Y-54800000D02*
X64490000Y-53674264D01*
X81625000Y-54800000D02*
X65615736Y-54800000D01*
D41*
%TO.N,/Level Shifters: SN74LV1T34DBV/Y2*%
X61700000Y-54300000D02*
X61700000Y-53390000D01*
X43200000Y-72400000D02*
X60600000Y-55000000D01*
X61000000Y-55000000D02*
X61700000Y-54300000D01*
X43200000Y-89925000D02*
X43200000Y-72400000D01*
X60600000Y-55000000D02*
X61000000Y-55000000D01*
D40*
%TO.N,/Level Shifters: SN74LV1T34DBV/Y3*%
X66050050Y-55800000D02*
X64090000Y-53839950D01*
X100000000Y-79775000D02*
X100000000Y-78800000D01*
X97000000Y-77600000D02*
X97000000Y-72400000D01*
X80400000Y-55800000D02*
X66050050Y-55800000D01*
X97000000Y-72400000D02*
X80400000Y-55800000D01*
X64090000Y-53839950D02*
X64090000Y-53390000D01*
X100925000Y-80700000D02*
X100000000Y-79775000D01*
D41*
%TO.N,/Level Shifters: SN74LV1T34DBV/A4*%
X63350000Y-65450000D02*
X62600000Y-66200000D01*
X63300000Y-59700000D02*
X63300000Y-53390000D01*
X63350000Y-64400000D02*
X63350000Y-65450000D01*
X63000000Y-60000000D02*
X63300000Y-59700000D01*
%TO.N,/Level Shifters: SN74LV1T34DBV/Y5*%
X62500000Y-54631372D02*
X62500000Y-53390000D01*
X55900000Y-61231372D02*
X62500000Y-54631372D01*
X55900000Y-89925000D02*
X55900000Y-61231372D01*
%TO.N,/Level Shifters: SN74LV1T34DBV/Y6*%
X62100000Y-54465686D02*
X62100000Y-53390000D01*
X49500000Y-89925000D02*
X49500000Y-67065686D01*
X49500000Y-67065686D02*
X62100000Y-54465686D01*
%TD*%
M02*
