%TF.GenerationSoftware,KiCad,Pcbnew,8.0.6*%
%TF.CreationDate,2025-04-07T11:26:50-07:00*%
%TF.ProjectId,csi_project,6373695f-7072-46f6-9a65-63742e6b6963,rev?*%
%TF.SameCoordinates,Original*%
%TF.FileFunction,Soldermask,Bot*%
%TF.FilePolarity,Negative*%
%FSLAX46Y46*%
G04 Gerber Fmt 4.6, Leading zero omitted, Abs format (unit mm)*
G04 Created by KiCad (PCBNEW 8.0.6) date 2025-04-07 11:26:50*
%MOMM*%
%LPD*%
G01*
G04 APERTURE LIST*
%ADD10R,4.000000X4.000000*%
%ADD11R,1.041400X1.041400*%
%ADD12C,1.041400*%
G04 APERTURE END LIST*
D10*
%TO.C,TP68*%
X244640000Y-52680000D03*
%TD*%
%TO.C,TP20*%
X71600000Y-28400000D03*
%TD*%
%TO.C,TP6*%
X102000000Y-57000000D03*
%TD*%
%TO.C,TP16*%
X182800000Y-101200000D03*
%TD*%
%TO.C,TP3*%
X31600000Y-79800000D03*
%TD*%
%TO.C,TP54*%
X278800000Y-114000000D03*
%TD*%
%TO.C,TP8*%
X87800000Y-28400000D03*
%TD*%
%TO.C,TP67*%
X244640000Y-45280000D03*
%TD*%
%TO.C,TP14*%
X102000000Y-51000000D03*
%TD*%
%TO.C,TP4*%
X102000000Y-68800000D03*
%TD*%
%TO.C,TP23*%
X55400000Y-28400000D03*
%TD*%
%TO.C,TP59*%
X268040000Y-116680000D03*
%TD*%
%TO.C,TP28*%
X31600000Y-58200000D03*
%TD*%
%TO.C,TP29*%
X31600000Y-52800000D03*
%TD*%
%TO.C,TP2*%
X31600000Y-74400000D03*
%TD*%
%TO.C,TP1*%
X31600000Y-47400000D03*
%TD*%
%TO.C,TP75*%
X268040000Y-109080000D03*
%TD*%
%TO.C,TP17*%
X55000000Y-103400000D03*
%TD*%
%TO.C,TP53*%
X278800000Y-106600000D03*
%TD*%
%TO.C,TP7*%
X93200000Y-28400000D03*
%TD*%
%TO.C,TP63*%
X277240000Y-56680000D03*
%TD*%
%TO.C,TP13*%
X102050000Y-44800000D03*
%TD*%
%TO.C,TP26*%
X31600000Y-69000000D03*
%TD*%
%TO.C,TP52*%
X278800000Y-98800000D03*
%TD*%
%TO.C,TP62*%
X277240000Y-64280000D03*
%TD*%
%TO.C,TP58*%
X268240000Y-124880000D03*
%TD*%
%TO.C,TP74*%
X253440000Y-99280000D03*
%TD*%
%TO.C,TP57*%
X198400000Y-122600000D03*
%TD*%
%TO.C,TP5*%
X102000000Y-63000000D03*
%TD*%
%TO.C,TP25*%
X44600000Y-28400000D03*
%TD*%
%TO.C,TP66*%
X206200000Y-122600000D03*
%TD*%
%TO.C,TP69*%
X244640000Y-60480000D03*
%TD*%
%TO.C,TP55*%
X279000000Y-121600000D03*
%TD*%
%TO.C,TP39*%
X278800000Y-83600000D03*
%TD*%
%TO.C,TP64*%
X190600000Y-54800000D03*
%TD*%
%TO.C,TP60*%
X253640000Y-83480000D03*
%TD*%
%TO.C,TP22*%
X60800000Y-28400000D03*
%TD*%
%TO.C,TP73*%
X253440000Y-91480000D03*
%TD*%
%TO.C,TP21*%
X66200000Y-28400000D03*
%TD*%
%TO.C,TP40*%
X278800000Y-91200000D03*
%TD*%
%TO.C,TP27*%
X31600000Y-63600000D03*
%TD*%
%TO.C,TP18*%
X82400000Y-28400000D03*
%TD*%
%TO.C,TP19*%
X77000000Y-28400000D03*
%TD*%
%TO.C,TP61*%
X277240000Y-71880000D03*
%TD*%
D11*
%TO.C,U16*%
X190640000Y-67480000D03*
D12*
X190640000Y-70020000D03*
X190640000Y-72560000D03*
X190640000Y-75100000D03*
X190640000Y-77640000D03*
X190640000Y-80180000D03*
X190640000Y-82720000D03*
X190640000Y-85260000D03*
X190640000Y-87800000D03*
X190640000Y-90340000D03*
X190640000Y-92880000D03*
X190640000Y-95420000D03*
X190640000Y-97960000D03*
X190640000Y-100500000D03*
X190640000Y-103040000D03*
X190640000Y-105580000D03*
X210960000Y-105580000D03*
X210960000Y-103040000D03*
X210960000Y-100500000D03*
X210960000Y-97960000D03*
X210960000Y-95420000D03*
X210960000Y-92880000D03*
X210960000Y-90340000D03*
X210960000Y-87800000D03*
X210960000Y-85260000D03*
X210960000Y-82720000D03*
X210960000Y-80180000D03*
X210960000Y-77640000D03*
%TD*%
D10*
%TO.C,TP56*%
X191200000Y-122600000D03*
%TD*%
%TO.C,TP38*%
X48000000Y-103400000D03*
%TD*%
%TO.C,TP9*%
X39200000Y-28400000D03*
%TD*%
%TO.C,TP24*%
X50000000Y-28400000D03*
%TD*%
M02*
