M48
; DRILL file {KiCad 8.0.6} date 2025-04-07T11:27:02-0700
; FORMAT={-:-/ absolute / inch / decimal}
; #@! TF.CreationDate,2025-04-07T11:27:02-07:00
; #@! TF.GenerationSoftware,Kicad,Pcbnew,8.0.6
; #@! TF.FileFunction,Plated,1,4,PTH
FMAT,2
INCH
; #@! TA.AperFunction,Plated,PTH,ViaDrill
T1C0.0118
; #@! TA.AperFunction,Plated,PTH,ComponentDrill
T2C0.0200
; #@! TA.AperFunction,Plated,PTH,ComponentDrill
T3C0.0787
%
G90
G05
T1
X1.6535Y-3.4331
X1.7717Y-3.6299
X1.8189Y-3.4331
X1.8898Y-3.7244
X1.9213Y-3.7717
X2.0079Y-1.9606
X2.0079Y-3.6299
X2.0472Y-3.4331
X2.1417Y-3.7165
X2.1732Y-1.9606
X2.2598Y-2.4016
X2.2598Y-2.5669
X2.2598Y-3.6299
X2.2756Y-1.9449
X2.3071Y-1.9213
X2.3701Y-2.4173
X2.4646Y-2.1811
X2.4646Y-2.6063
X2.4803Y-2.3622
X2.5276Y-2.1732
X2.5827Y-2.3622
X2.5984Y-2.5354
X2.6299Y-1.9685
X2.6378Y-1.937
X2.6693Y-1.8976
X2.6693Y-1.9764
X2.748Y-2.2756
X2.748Y-2.3622
X2.8031Y-1.9291
X2.8425Y-1.9843
X3.7165Y-3.1969
X3.8189Y-3.0551
X3.937Y-3.1024
X4.126Y-3.0551
X4.1496Y-2.8898
X4.1575Y-3.1575
X4.252Y-3.0157
X6.1969Y-2.622
X6.3228Y-2.9134
X6.3858Y-2.622
X6.4173Y-2.5276
X6.4331Y-3.0079
X6.5197Y-2.4882
X6.5748Y-2.6142
X6.5984Y-2.3701
X6.6929Y-3.0472
X6.748Y-2.9764
X6.7953Y-2.6929
X6.8425Y-2.5984
X6.937Y-3.5197
X7.2047Y-3.3071
X7.2205Y-4.6142
X7.3386Y-3.7795
T2
X7.5055Y-2.6567
X7.5055Y-2.7567
X7.5055Y-2.8567
X7.5055Y-2.9567
X7.5055Y-3.0567
X7.5055Y-3.1567
X7.5055Y-3.2567
X7.5055Y-3.3567
X7.5055Y-3.4567
X7.5055Y-3.5567
X7.5055Y-3.6567
X7.5055Y-3.7567
X7.5055Y-3.8567
X7.5055Y-3.9567
X7.5055Y-4.0567
X7.5055Y-4.1567
X8.3055Y-3.0567
X8.3055Y-3.1567
X8.3055Y-3.2567
X8.3055Y-3.3567
X8.3055Y-3.4567
X8.3055Y-3.5567
X8.3055Y-3.6567
X8.3055Y-3.7567
X8.3055Y-3.8567
X8.3055Y-3.9567
X8.3055Y-4.0567
X8.3055Y-4.1567
T3
X1.2441Y-1.8661
X1.2441Y-2.0787
X1.2441Y-2.2913
X1.2441Y-2.5039
X1.2441Y-2.7165
X1.2441Y-2.9291
X1.2441Y-3.1417
X1.5433Y-1.1181
X1.7559Y-1.1181
X1.8898Y-4.0709
X1.9685Y-1.1181
X2.1654Y-4.0709
X2.1811Y-1.1181
X2.3937Y-1.1181
X2.6063Y-1.1181
X2.8189Y-1.1181
X3.0315Y-1.1181
X3.2441Y-1.1181
X3.4567Y-1.1181
X3.6693Y-1.1181
X4.0157Y-2.0079
X4.0157Y-2.2441
X4.0157Y-2.4803
X4.0157Y-2.7087
X4.0177Y-1.7638
X7.1969Y-3.9843
X7.5039Y-2.1575
X7.5276Y-4.8268
X7.811Y-4.8268
X8.1181Y-4.8268
X9.6315Y-1.7827
X9.6315Y-2.074
X9.6315Y-2.3811
X9.978Y-3.6016
X9.978Y-3.9087
X9.9858Y-3.2866
X10.5528Y-4.2945
X10.5528Y-4.5937
X10.5606Y-4.9165
X10.915Y-2.2315
X10.915Y-2.5307
X10.915Y-2.8299
X10.9764Y-3.2913
X10.9764Y-3.5906
X10.9764Y-3.8898
X10.9764Y-4.1969
X10.9764Y-4.4882
X10.9843Y-4.7874
M30
