%TF.GenerationSoftware,KiCad,Pcbnew,8.0.6*%
%TF.CreationDate,2025-04-07T11:21:34-07:00*%
%TF.ProjectId,csi_project,6373695f-7072-46f6-9a65-63742e6b6963,rev?*%
%TF.SameCoordinates,Original*%
%TF.FileFunction,Drillmap*%
%TF.FilePolarity,Positive*%
%FSLAX45Y45*%
G04 Gerber Fmt 4.5, Leading zero omitted, Abs format (unit mm)*
G04 Created by KiCad (PCBNEW 8.0.6) date 2025-04-07 11:21:34*
%MOMM*%
%LPD*%
G01*
G04 APERTURE LIST*
%ADD10C,0.050000*%
%ADD11C,0.200000*%
%ADD12C,0.100000*%
G04 APERTURE END LIST*
D10*
X29020000Y-580000D02*
X580000Y-580000D01*
X29020000Y-13420000D02*
X29020000Y-580000D01*
X580000Y-13420000D02*
X29020000Y-13420000D01*
X580000Y-580000D02*
X580000Y-13420000D01*
D11*
D12*
X4185000Y-8705000D02*
X4215000Y-8735000D01*
X4215000Y-8705000D02*
X4185000Y-8735000D01*
X4485000Y-9205000D02*
X4515000Y-9235000D01*
X4515000Y-9205000D02*
X4485000Y-9235000D01*
X4605000Y-8705000D02*
X4635000Y-8735000D01*
X4635000Y-8705000D02*
X4605000Y-8735000D01*
X4785000Y-9445000D02*
X4815000Y-9475000D01*
X4815000Y-9445000D02*
X4785000Y-9475000D01*
X4865000Y-9565000D02*
X4895000Y-9595000D01*
X4895000Y-9565000D02*
X4865000Y-9595000D01*
X5085000Y-4965000D02*
X5115000Y-4995000D01*
X5115000Y-4965000D02*
X5085000Y-4995000D01*
X5085000Y-9205000D02*
X5115000Y-9235000D01*
X5115000Y-9205000D02*
X5085000Y-9235000D01*
X5185000Y-8705000D02*
X5215000Y-8735000D01*
X5215000Y-8705000D02*
X5185000Y-8735000D01*
X5425000Y-9425000D02*
X5455000Y-9455000D01*
X5455000Y-9425000D02*
X5425000Y-9455000D01*
X5505000Y-4965000D02*
X5535000Y-4995000D01*
X5535000Y-4965000D02*
X5505000Y-4995000D01*
X5725000Y-6085000D02*
X5755000Y-6115000D01*
X5755000Y-6085000D02*
X5725000Y-6115000D01*
X5725000Y-6505000D02*
X5755000Y-6535000D01*
X5755000Y-6505000D02*
X5725000Y-6535000D01*
X5725000Y-9205000D02*
X5755000Y-9235000D01*
X5755000Y-9205000D02*
X5725000Y-9235000D01*
X5765000Y-4925000D02*
X5795000Y-4955000D01*
X5795000Y-4925000D02*
X5765000Y-4955000D01*
X5845000Y-4865000D02*
X5875000Y-4895000D01*
X5875000Y-4865000D02*
X5845000Y-4895000D01*
X6005000Y-6125000D02*
X6035000Y-6155000D01*
X6035000Y-6125000D02*
X6005000Y-6155000D01*
X6245000Y-5525000D02*
X6275000Y-5555000D01*
X6275000Y-5525000D02*
X6245000Y-5555000D01*
X6245000Y-6605000D02*
X6275000Y-6635000D01*
X6275000Y-6605000D02*
X6245000Y-6635000D01*
X6285000Y-5985000D02*
X6315000Y-6015000D01*
X6315000Y-5985000D02*
X6285000Y-6015000D01*
X6405000Y-5505000D02*
X6435000Y-5535000D01*
X6435000Y-5505000D02*
X6405000Y-5535000D01*
X6545000Y-5985000D02*
X6575000Y-6015000D01*
X6575000Y-5985000D02*
X6545000Y-6015000D01*
X6585000Y-6425000D02*
X6615000Y-6455000D01*
X6615000Y-6425000D02*
X6585000Y-6455000D01*
X6665000Y-4985000D02*
X6695000Y-5015000D01*
X6695000Y-4985000D02*
X6665000Y-5015000D01*
X6685000Y-4905000D02*
X6715000Y-4935000D01*
X6715000Y-4905000D02*
X6685000Y-4935000D01*
X6765000Y-4805000D02*
X6795000Y-4835000D01*
X6795000Y-4805000D02*
X6765000Y-4835000D01*
X6765000Y-5005000D02*
X6795000Y-5035000D01*
X6795000Y-5005000D02*
X6765000Y-5035000D01*
X6965000Y-5765000D02*
X6995000Y-5795000D01*
X6995000Y-5765000D02*
X6965000Y-5795000D01*
X6965000Y-5985000D02*
X6995000Y-6015000D01*
X6995000Y-5985000D02*
X6965000Y-6015000D01*
X7105000Y-4885000D02*
X7135000Y-4915000D01*
X7135000Y-4885000D02*
X7105000Y-4915000D01*
X7205000Y-5025000D02*
X7235000Y-5055000D01*
X7235000Y-5025000D02*
X7205000Y-5055000D01*
X9425000Y-8105000D02*
X9455000Y-8135000D01*
X9455000Y-8105000D02*
X9425000Y-8135000D01*
X9685000Y-7745000D02*
X9715000Y-7775000D01*
X9715000Y-7745000D02*
X9685000Y-7775000D01*
X9985000Y-7865000D02*
X10015000Y-7895000D01*
X10015000Y-7865000D02*
X9985000Y-7895000D01*
X10465000Y-7745000D02*
X10495000Y-7775000D01*
X10495000Y-7745000D02*
X10465000Y-7775000D01*
X10525000Y-7325000D02*
X10555000Y-7355000D01*
X10555000Y-7325000D02*
X10525000Y-7355000D01*
X10545000Y-8005000D02*
X10575000Y-8035000D01*
X10575000Y-8005000D02*
X10545000Y-8035000D01*
X10785000Y-7645000D02*
X10815000Y-7675000D01*
X10815000Y-7645000D02*
X10785000Y-7675000D01*
X15725000Y-6645000D02*
X15755000Y-6675000D01*
X15755000Y-6645000D02*
X15725000Y-6675000D01*
X16045000Y-7385000D02*
X16075000Y-7415000D01*
X16075000Y-7385000D02*
X16045000Y-7415000D01*
X16205000Y-6645000D02*
X16235000Y-6675000D01*
X16235000Y-6645000D02*
X16205000Y-6675000D01*
X16285000Y-6405000D02*
X16315000Y-6435000D01*
X16315000Y-6405000D02*
X16285000Y-6435000D01*
X16325000Y-7625000D02*
X16355000Y-7655000D01*
X16355000Y-7625000D02*
X16325000Y-7655000D01*
X16545000Y-6305000D02*
X16575000Y-6335000D01*
X16575000Y-6305000D02*
X16545000Y-6335000D01*
X16685000Y-6625000D02*
X16715000Y-6655000D01*
X16715000Y-6625000D02*
X16685000Y-6655000D01*
X16745000Y-6005000D02*
X16775000Y-6035000D01*
X16775000Y-6005000D02*
X16745000Y-6035000D01*
X16985000Y-7725000D02*
X17015000Y-7755000D01*
X17015000Y-7725000D02*
X16985000Y-7755000D01*
X17125000Y-7545000D02*
X17155000Y-7575000D01*
X17155000Y-7545000D02*
X17125000Y-7575000D01*
X17245000Y-6825000D02*
X17275000Y-6855000D01*
X17275000Y-6825000D02*
X17245000Y-6855000D01*
X17365000Y-6585000D02*
X17395000Y-6615000D01*
X17395000Y-6585000D02*
X17365000Y-6615000D01*
X17605000Y-8925000D02*
X17635000Y-8955000D01*
X17635000Y-8925000D02*
X17605000Y-8955000D01*
X18285000Y-8385000D02*
X18315000Y-8415000D01*
X18315000Y-8385000D02*
X18285000Y-8415000D01*
X18325000Y-11705000D02*
X18355000Y-11735000D01*
X18355000Y-11705000D02*
X18325000Y-11735000D01*
X18625000Y-9585000D02*
X18655000Y-9615000D01*
X18655000Y-9585000D02*
X18625000Y-9615000D01*
X19089400Y-6748000D02*
G75*
G02*
X19038600Y-6748000I-25400J0D01*
G01*
X19038600Y-6748000D02*
G75*
G02*
X19089400Y-6748000I25400J0D01*
G01*
X19089400Y-7002000D02*
G75*
G02*
X19038600Y-7002000I-25400J0D01*
G01*
X19038600Y-7002000D02*
G75*
G02*
X19089400Y-7002000I25400J0D01*
G01*
X19089400Y-7256000D02*
G75*
G02*
X19038600Y-7256000I-25400J0D01*
G01*
X19038600Y-7256000D02*
G75*
G02*
X19089400Y-7256000I25400J0D01*
G01*
X19089400Y-7510000D02*
G75*
G02*
X19038600Y-7510000I-25400J0D01*
G01*
X19038600Y-7510000D02*
G75*
G02*
X19089400Y-7510000I25400J0D01*
G01*
X19089400Y-7764000D02*
G75*
G02*
X19038600Y-7764000I-25400J0D01*
G01*
X19038600Y-7764000D02*
G75*
G02*
X19089400Y-7764000I25400J0D01*
G01*
X19089400Y-8018000D02*
G75*
G02*
X19038600Y-8018000I-25400J0D01*
G01*
X19038600Y-8018000D02*
G75*
G02*
X19089400Y-8018000I25400J0D01*
G01*
X19089400Y-8272000D02*
G75*
G02*
X19038600Y-8272000I-25400J0D01*
G01*
X19038600Y-8272000D02*
G75*
G02*
X19089400Y-8272000I25400J0D01*
G01*
X19089400Y-8526000D02*
G75*
G02*
X19038600Y-8526000I-25400J0D01*
G01*
X19038600Y-8526000D02*
G75*
G02*
X19089400Y-8526000I25400J0D01*
G01*
X19089400Y-8780000D02*
G75*
G02*
X19038600Y-8780000I-25400J0D01*
G01*
X19038600Y-8780000D02*
G75*
G02*
X19089400Y-8780000I25400J0D01*
G01*
X19089400Y-9034000D02*
G75*
G02*
X19038600Y-9034000I-25400J0D01*
G01*
X19038600Y-9034000D02*
G75*
G02*
X19089400Y-9034000I25400J0D01*
G01*
X19089400Y-9288000D02*
G75*
G02*
X19038600Y-9288000I-25400J0D01*
G01*
X19038600Y-9288000D02*
G75*
G02*
X19089400Y-9288000I25400J0D01*
G01*
X19089400Y-9542000D02*
G75*
G02*
X19038600Y-9542000I-25400J0D01*
G01*
X19038600Y-9542000D02*
G75*
G02*
X19089400Y-9542000I25400J0D01*
G01*
X19089400Y-9796000D02*
G75*
G02*
X19038600Y-9796000I-25400J0D01*
G01*
X19038600Y-9796000D02*
G75*
G02*
X19089400Y-9796000I25400J0D01*
G01*
X19089400Y-10050000D02*
G75*
G02*
X19038600Y-10050000I-25400J0D01*
G01*
X19038600Y-10050000D02*
G75*
G02*
X19089400Y-10050000I25400J0D01*
G01*
X19089400Y-10304000D02*
G75*
G02*
X19038600Y-10304000I-25400J0D01*
G01*
X19038600Y-10304000D02*
G75*
G02*
X19089400Y-10304000I25400J0D01*
G01*
X19089400Y-10558000D02*
G75*
G02*
X19038600Y-10558000I-25400J0D01*
G01*
X19038600Y-10558000D02*
G75*
G02*
X19089400Y-10558000I25400J0D01*
G01*
X21121400Y-7764000D02*
G75*
G02*
X21070600Y-7764000I-25400J0D01*
G01*
X21070600Y-7764000D02*
G75*
G02*
X21121400Y-7764000I25400J0D01*
G01*
X21121400Y-8018000D02*
G75*
G02*
X21070600Y-8018000I-25400J0D01*
G01*
X21070600Y-8018000D02*
G75*
G02*
X21121400Y-8018000I25400J0D01*
G01*
X21121400Y-8272000D02*
G75*
G02*
X21070600Y-8272000I-25400J0D01*
G01*
X21070600Y-8272000D02*
G75*
G02*
X21121400Y-8272000I25400J0D01*
G01*
X21121400Y-8526000D02*
G75*
G02*
X21070600Y-8526000I-25400J0D01*
G01*
X21070600Y-8526000D02*
G75*
G02*
X21121400Y-8526000I25400J0D01*
G01*
X21121400Y-8780000D02*
G75*
G02*
X21070600Y-8780000I-25400J0D01*
G01*
X21070600Y-8780000D02*
G75*
G02*
X21121400Y-8780000I25400J0D01*
G01*
X21121400Y-9034000D02*
G75*
G02*
X21070600Y-9034000I-25400J0D01*
G01*
X21070600Y-9034000D02*
G75*
G02*
X21121400Y-9034000I25400J0D01*
G01*
X21121400Y-9288000D02*
G75*
G02*
X21070600Y-9288000I-25400J0D01*
G01*
X21070600Y-9288000D02*
G75*
G02*
X21121400Y-9288000I25400J0D01*
G01*
X21121400Y-9542000D02*
G75*
G02*
X21070600Y-9542000I-25400J0D01*
G01*
X21070600Y-9542000D02*
G75*
G02*
X21121400Y-9542000I25400J0D01*
G01*
X21121400Y-9796000D02*
G75*
G02*
X21070600Y-9796000I-25400J0D01*
G01*
X21070600Y-9796000D02*
G75*
G02*
X21121400Y-9796000I25400J0D01*
G01*
X21121400Y-10050000D02*
G75*
G02*
X21070600Y-10050000I-25400J0D01*
G01*
X21070600Y-10050000D02*
G75*
G02*
X21121400Y-10050000I25400J0D01*
G01*
X21121400Y-10304000D02*
G75*
G02*
X21070600Y-10304000I-25400J0D01*
G01*
X21070600Y-10304000D02*
G75*
G02*
X21121400Y-10304000I25400J0D01*
G01*
X21121400Y-10558000D02*
G75*
G02*
X21070600Y-10558000I-25400J0D01*
G01*
X21070600Y-10558000D02*
G75*
G02*
X21121400Y-10558000I25400J0D01*
G01*
D11*
X3160000Y-4640000D02*
X3160000Y-4840000D01*
X3060000Y-4740000D02*
X3260000Y-4740000D01*
X3160000Y-5180000D02*
X3160000Y-5380000D01*
X3060000Y-5280000D02*
X3260000Y-5280000D01*
X3160000Y-5720000D02*
X3160000Y-5920000D01*
X3060000Y-5820000D02*
X3260000Y-5820000D01*
X3160000Y-6260000D02*
X3160000Y-6460000D01*
X3060000Y-6360000D02*
X3260000Y-6360000D01*
X3160000Y-6800000D02*
X3160000Y-7000000D01*
X3060000Y-6900000D02*
X3260000Y-6900000D01*
X3160000Y-7340000D02*
X3160000Y-7540000D01*
X3060000Y-7440000D02*
X3260000Y-7440000D01*
X3160000Y-7880000D02*
X3160000Y-8080000D01*
X3060000Y-7980000D02*
X3260000Y-7980000D01*
X3920000Y-2740000D02*
X3920000Y-2940000D01*
X3820000Y-2840000D02*
X4020000Y-2840000D01*
X4460000Y-2740000D02*
X4460000Y-2940000D01*
X4360000Y-2840000D02*
X4560000Y-2840000D01*
X4800000Y-10240000D02*
X4800000Y-10440000D01*
X4700000Y-10340000D02*
X4900000Y-10340000D01*
X5000000Y-2740000D02*
X5000000Y-2940000D01*
X4900000Y-2840000D02*
X5100000Y-2840000D01*
X5500000Y-10240000D02*
X5500000Y-10440000D01*
X5400000Y-10340000D02*
X5600000Y-10340000D01*
X5540000Y-2740000D02*
X5540000Y-2940000D01*
X5440000Y-2840000D02*
X5640000Y-2840000D01*
X6080000Y-2740000D02*
X6080000Y-2940000D01*
X5980000Y-2840000D02*
X6180000Y-2840000D01*
X6620000Y-2740000D02*
X6620000Y-2940000D01*
X6520000Y-2840000D02*
X6720000Y-2840000D01*
X7160000Y-2740000D02*
X7160000Y-2940000D01*
X7060000Y-2840000D02*
X7260000Y-2840000D01*
X7700000Y-2740000D02*
X7700000Y-2940000D01*
X7600000Y-2840000D02*
X7800000Y-2840000D01*
X8240000Y-2740000D02*
X8240000Y-2940000D01*
X8140000Y-2840000D02*
X8340000Y-2840000D01*
X8780000Y-2740000D02*
X8780000Y-2940000D01*
X8680000Y-2840000D02*
X8880000Y-2840000D01*
X9320000Y-2740000D02*
X9320000Y-2940000D01*
X9220000Y-2840000D02*
X9420000Y-2840000D01*
X10200000Y-5000000D02*
X10200000Y-5200000D01*
X10100000Y-5100000D02*
X10300000Y-5100000D01*
X10200000Y-5600000D02*
X10200000Y-5800000D01*
X10100000Y-5700000D02*
X10300000Y-5700000D01*
X10200000Y-6200000D02*
X10200000Y-6400000D01*
X10100000Y-6300000D02*
X10300000Y-6300000D01*
X10200000Y-6780000D02*
X10200000Y-6980000D01*
X10100000Y-6880000D02*
X10300000Y-6880000D01*
X10205000Y-4380000D02*
X10205000Y-4580000D01*
X10105000Y-4480000D02*
X10305000Y-4480000D01*
X18280000Y-10020000D02*
X18280000Y-10220000D01*
X18180000Y-10120000D02*
X18380000Y-10120000D01*
X19060000Y-5380000D02*
X19060000Y-5580000D01*
X18960000Y-5480000D02*
X19160000Y-5480000D01*
X19120000Y-12160000D02*
X19120000Y-12360000D01*
X19020000Y-12260000D02*
X19220000Y-12260000D01*
X19840000Y-12160000D02*
X19840000Y-12360000D01*
X19740000Y-12260000D02*
X19940000Y-12260000D01*
X20620000Y-12160000D02*
X20620000Y-12360000D01*
X20520000Y-12260000D02*
X20720000Y-12260000D01*
X24464000Y-4428000D02*
X24464000Y-4628000D01*
X24364000Y-4528000D02*
X24564000Y-4528000D01*
X24464000Y-5168000D02*
X24464000Y-5368000D01*
X24364000Y-5268000D02*
X24564000Y-5268000D01*
X24464000Y-5948000D02*
X24464000Y-6148000D01*
X24364000Y-6048000D02*
X24564000Y-6048000D01*
X25344000Y-9048000D02*
X25344000Y-9248000D01*
X25244000Y-9148000D02*
X25444000Y-9148000D01*
X25344000Y-9828000D02*
X25344000Y-10028000D01*
X25244000Y-9928000D02*
X25444000Y-9928000D01*
X25364000Y-8248000D02*
X25364000Y-8448000D01*
X25264000Y-8348000D02*
X25464000Y-8348000D01*
X26804000Y-10808000D02*
X26804000Y-11008000D01*
X26704000Y-10908000D02*
X26904000Y-10908000D01*
X26804000Y-11568000D02*
X26804000Y-11768000D01*
X26704000Y-11668000D02*
X26904000Y-11668000D01*
X26824000Y-12388000D02*
X26824000Y-12588000D01*
X26724000Y-12488000D02*
X26924000Y-12488000D01*
X27724000Y-5568000D02*
X27724000Y-5768000D01*
X27624000Y-5668000D02*
X27824000Y-5668000D01*
X27724000Y-6328000D02*
X27724000Y-6528000D01*
X27624000Y-6428000D02*
X27824000Y-6428000D01*
X27724000Y-7088000D02*
X27724000Y-7288000D01*
X27624000Y-7188000D02*
X27824000Y-7188000D01*
X27880000Y-8260000D02*
X27880000Y-8460000D01*
X27780000Y-8360000D02*
X27980000Y-8360000D01*
X27880000Y-9020000D02*
X27880000Y-9220000D01*
X27780000Y-9120000D02*
X27980000Y-9120000D01*
X27880000Y-9780000D02*
X27880000Y-9980000D01*
X27780000Y-9880000D02*
X27980000Y-9880000D01*
X27880000Y-10560000D02*
X27880000Y-10760000D01*
X27780000Y-10660000D02*
X27980000Y-10660000D01*
X27880000Y-11300000D02*
X27880000Y-11500000D01*
X27780000Y-11400000D02*
X27980000Y-11400000D01*
X27900000Y-12060000D02*
X27900000Y-12260000D01*
X27800000Y-12160000D02*
X28000000Y-12160000D01*
X838277Y-13733984D02*
X838277Y-13533984D01*
X838277Y-13533984D02*
X885896Y-13533984D01*
X885896Y-13533984D02*
X914467Y-13543508D01*
X914467Y-13543508D02*
X933515Y-13562555D01*
X933515Y-13562555D02*
X943039Y-13581603D01*
X943039Y-13581603D02*
X952562Y-13619698D01*
X952562Y-13619698D02*
X952562Y-13648269D01*
X952562Y-13648269D02*
X943039Y-13686365D01*
X943039Y-13686365D02*
X933515Y-13705412D01*
X933515Y-13705412D02*
X914467Y-13724460D01*
X914467Y-13724460D02*
X885896Y-13733984D01*
X885896Y-13733984D02*
X838277Y-13733984D01*
X1038277Y-13733984D02*
X1038277Y-13600650D01*
X1038277Y-13638746D02*
X1047801Y-13619698D01*
X1047801Y-13619698D02*
X1057324Y-13610174D01*
X1057324Y-13610174D02*
X1076372Y-13600650D01*
X1076372Y-13600650D02*
X1095420Y-13600650D01*
X1162086Y-13733984D02*
X1162086Y-13600650D01*
X1162086Y-13533984D02*
X1152563Y-13543508D01*
X1152563Y-13543508D02*
X1162086Y-13553031D01*
X1162086Y-13553031D02*
X1171610Y-13543508D01*
X1171610Y-13543508D02*
X1162086Y-13533984D01*
X1162086Y-13533984D02*
X1162086Y-13553031D01*
X1285896Y-13733984D02*
X1266848Y-13724460D01*
X1266848Y-13724460D02*
X1257324Y-13705412D01*
X1257324Y-13705412D02*
X1257324Y-13533984D01*
X1390658Y-13733984D02*
X1371610Y-13724460D01*
X1371610Y-13724460D02*
X1362086Y-13705412D01*
X1362086Y-13705412D02*
X1362086Y-13533984D01*
X1619229Y-13733984D02*
X1619229Y-13533984D01*
X1619229Y-13533984D02*
X1685896Y-13676841D01*
X1685896Y-13676841D02*
X1752562Y-13533984D01*
X1752562Y-13533984D02*
X1752562Y-13733984D01*
X1933515Y-13733984D02*
X1933515Y-13629222D01*
X1933515Y-13629222D02*
X1923991Y-13610174D01*
X1923991Y-13610174D02*
X1904943Y-13600650D01*
X1904943Y-13600650D02*
X1866848Y-13600650D01*
X1866848Y-13600650D02*
X1847801Y-13610174D01*
X1933515Y-13724460D02*
X1914467Y-13733984D01*
X1914467Y-13733984D02*
X1866848Y-13733984D01*
X1866848Y-13733984D02*
X1847801Y-13724460D01*
X1847801Y-13724460D02*
X1838277Y-13705412D01*
X1838277Y-13705412D02*
X1838277Y-13686365D01*
X1838277Y-13686365D02*
X1847801Y-13667317D01*
X1847801Y-13667317D02*
X1866848Y-13657793D01*
X1866848Y-13657793D02*
X1914467Y-13657793D01*
X1914467Y-13657793D02*
X1933515Y-13648269D01*
X2028753Y-13600650D02*
X2028753Y-13800650D01*
X2028753Y-13610174D02*
X2047801Y-13600650D01*
X2047801Y-13600650D02*
X2085896Y-13600650D01*
X2085896Y-13600650D02*
X2104944Y-13610174D01*
X2104944Y-13610174D02*
X2114467Y-13619698D01*
X2114467Y-13619698D02*
X2123991Y-13638746D01*
X2123991Y-13638746D02*
X2123991Y-13695888D01*
X2123991Y-13695888D02*
X2114467Y-13714936D01*
X2114467Y-13714936D02*
X2104944Y-13724460D01*
X2104944Y-13724460D02*
X2085896Y-13733984D01*
X2085896Y-13733984D02*
X2047801Y-13733984D01*
X2047801Y-13733984D02*
X2028753Y-13724460D01*
X2209705Y-13714936D02*
X2219229Y-13724460D01*
X2219229Y-13724460D02*
X2209705Y-13733984D01*
X2209705Y-13733984D02*
X2200182Y-13724460D01*
X2200182Y-13724460D02*
X2209705Y-13714936D01*
X2209705Y-13714936D02*
X2209705Y-13733984D01*
X2209705Y-13610174D02*
X2219229Y-13619698D01*
X2219229Y-13619698D02*
X2209705Y-13629222D01*
X2209705Y-13629222D02*
X2200182Y-13619698D01*
X2200182Y-13619698D02*
X2209705Y-13610174D01*
X2209705Y-13610174D02*
X2209705Y-13629222D01*
D12*
X547500Y-14047500D02*
X577500Y-14077500D01*
X577500Y-14047500D02*
X547500Y-14077500D01*
D11*
X876372Y-13953984D02*
X895420Y-13953984D01*
X895420Y-13953984D02*
X914467Y-13963508D01*
X914467Y-13963508D02*
X923991Y-13973031D01*
X923991Y-13973031D02*
X933515Y-13992079D01*
X933515Y-13992079D02*
X943039Y-14030174D01*
X943039Y-14030174D02*
X943039Y-14077793D01*
X943039Y-14077793D02*
X933515Y-14115888D01*
X933515Y-14115888D02*
X923991Y-14134936D01*
X923991Y-14134936D02*
X914467Y-14144460D01*
X914467Y-14144460D02*
X895420Y-14153984D01*
X895420Y-14153984D02*
X876372Y-14153984D01*
X876372Y-14153984D02*
X857324Y-14144460D01*
X857324Y-14144460D02*
X847801Y-14134936D01*
X847801Y-14134936D02*
X838277Y-14115888D01*
X838277Y-14115888D02*
X828753Y-14077793D01*
X828753Y-14077793D02*
X828753Y-14030174D01*
X828753Y-14030174D02*
X838277Y-13992079D01*
X838277Y-13992079D02*
X847801Y-13973031D01*
X847801Y-13973031D02*
X857324Y-13963508D01*
X857324Y-13963508D02*
X876372Y-13953984D01*
X1028753Y-14134936D02*
X1038277Y-14144460D01*
X1038277Y-14144460D02*
X1028753Y-14153984D01*
X1028753Y-14153984D02*
X1019229Y-14144460D01*
X1019229Y-14144460D02*
X1028753Y-14134936D01*
X1028753Y-14134936D02*
X1028753Y-14153984D01*
X1104944Y-13953984D02*
X1228753Y-13953984D01*
X1228753Y-13953984D02*
X1162086Y-14030174D01*
X1162086Y-14030174D02*
X1190658Y-14030174D01*
X1190658Y-14030174D02*
X1209705Y-14039698D01*
X1209705Y-14039698D02*
X1219229Y-14049222D01*
X1219229Y-14049222D02*
X1228753Y-14068269D01*
X1228753Y-14068269D02*
X1228753Y-14115888D01*
X1228753Y-14115888D02*
X1219229Y-14134936D01*
X1219229Y-14134936D02*
X1209705Y-14144460D01*
X1209705Y-14144460D02*
X1190658Y-14153984D01*
X1190658Y-14153984D02*
X1133515Y-14153984D01*
X1133515Y-14153984D02*
X1114467Y-14144460D01*
X1114467Y-14144460D02*
X1104944Y-14134936D01*
X1352563Y-13953984D02*
X1371610Y-13953984D01*
X1371610Y-13953984D02*
X1390658Y-13963508D01*
X1390658Y-13963508D02*
X1400182Y-13973031D01*
X1400182Y-13973031D02*
X1409705Y-13992079D01*
X1409705Y-13992079D02*
X1419229Y-14030174D01*
X1419229Y-14030174D02*
X1419229Y-14077793D01*
X1419229Y-14077793D02*
X1409705Y-14115888D01*
X1409705Y-14115888D02*
X1400182Y-14134936D01*
X1400182Y-14134936D02*
X1390658Y-14144460D01*
X1390658Y-14144460D02*
X1371610Y-14153984D01*
X1371610Y-14153984D02*
X1352563Y-14153984D01*
X1352563Y-14153984D02*
X1333515Y-14144460D01*
X1333515Y-14144460D02*
X1323991Y-14134936D01*
X1323991Y-14134936D02*
X1314467Y-14115888D01*
X1314467Y-14115888D02*
X1304944Y-14077793D01*
X1304944Y-14077793D02*
X1304944Y-14030174D01*
X1304944Y-14030174D02*
X1314467Y-13992079D01*
X1314467Y-13992079D02*
X1323991Y-13973031D01*
X1323991Y-13973031D02*
X1333515Y-13963508D01*
X1333515Y-13963508D02*
X1352563Y-13953984D01*
X1543039Y-13953984D02*
X1562086Y-13953984D01*
X1562086Y-13953984D02*
X1581134Y-13963508D01*
X1581134Y-13963508D02*
X1590658Y-13973031D01*
X1590658Y-13973031D02*
X1600182Y-13992079D01*
X1600182Y-13992079D02*
X1609705Y-14030174D01*
X1609705Y-14030174D02*
X1609705Y-14077793D01*
X1609705Y-14077793D02*
X1600182Y-14115888D01*
X1600182Y-14115888D02*
X1590658Y-14134936D01*
X1590658Y-14134936D02*
X1581134Y-14144460D01*
X1581134Y-14144460D02*
X1562086Y-14153984D01*
X1562086Y-14153984D02*
X1543039Y-14153984D01*
X1543039Y-14153984D02*
X1523991Y-14144460D01*
X1523991Y-14144460D02*
X1514467Y-14134936D01*
X1514467Y-14134936D02*
X1504943Y-14115888D01*
X1504943Y-14115888D02*
X1495420Y-14077793D01*
X1495420Y-14077793D02*
X1495420Y-14030174D01*
X1495420Y-14030174D02*
X1504943Y-13992079D01*
X1504943Y-13992079D02*
X1514467Y-13973031D01*
X1514467Y-13973031D02*
X1523991Y-13963508D01*
X1523991Y-13963508D02*
X1543039Y-13953984D01*
X1695420Y-14153984D02*
X1695420Y-14020650D01*
X1695420Y-14039698D02*
X1704943Y-14030174D01*
X1704943Y-14030174D02*
X1723991Y-14020650D01*
X1723991Y-14020650D02*
X1752563Y-14020650D01*
X1752563Y-14020650D02*
X1771610Y-14030174D01*
X1771610Y-14030174D02*
X1781134Y-14049222D01*
X1781134Y-14049222D02*
X1781134Y-14153984D01*
X1781134Y-14049222D02*
X1790658Y-14030174D01*
X1790658Y-14030174D02*
X1809705Y-14020650D01*
X1809705Y-14020650D02*
X1838277Y-14020650D01*
X1838277Y-14020650D02*
X1857324Y-14030174D01*
X1857324Y-14030174D02*
X1866848Y-14049222D01*
X1866848Y-14049222D02*
X1866848Y-14153984D01*
X1962086Y-14153984D02*
X1962086Y-14020650D01*
X1962086Y-14039698D02*
X1971610Y-14030174D01*
X1971610Y-14030174D02*
X1990658Y-14020650D01*
X1990658Y-14020650D02*
X2019229Y-14020650D01*
X2019229Y-14020650D02*
X2038277Y-14030174D01*
X2038277Y-14030174D02*
X2047801Y-14049222D01*
X2047801Y-14049222D02*
X2047801Y-14153984D01*
X2047801Y-14049222D02*
X2057324Y-14030174D01*
X2057324Y-14030174D02*
X2076372Y-14020650D01*
X2076372Y-14020650D02*
X2104944Y-14020650D01*
X2104944Y-14020650D02*
X2123991Y-14030174D01*
X2123991Y-14030174D02*
X2133515Y-14049222D01*
X2133515Y-14049222D02*
X2133515Y-14153984D01*
X2523991Y-13944460D02*
X2352563Y-14201603D01*
X2781134Y-13953984D02*
X2800182Y-13953984D01*
X2800182Y-13953984D02*
X2819229Y-13963508D01*
X2819229Y-13963508D02*
X2828753Y-13973031D01*
X2828753Y-13973031D02*
X2838277Y-13992079D01*
X2838277Y-13992079D02*
X2847801Y-14030174D01*
X2847801Y-14030174D02*
X2847801Y-14077793D01*
X2847801Y-14077793D02*
X2838277Y-14115888D01*
X2838277Y-14115888D02*
X2828753Y-14134936D01*
X2828753Y-14134936D02*
X2819229Y-14144460D01*
X2819229Y-14144460D02*
X2800182Y-14153984D01*
X2800182Y-14153984D02*
X2781134Y-14153984D01*
X2781134Y-14153984D02*
X2762087Y-14144460D01*
X2762087Y-14144460D02*
X2752563Y-14134936D01*
X2752563Y-14134936D02*
X2743039Y-14115888D01*
X2743039Y-14115888D02*
X2733515Y-14077793D01*
X2733515Y-14077793D02*
X2733515Y-14030174D01*
X2733515Y-14030174D02*
X2743039Y-13992079D01*
X2743039Y-13992079D02*
X2752563Y-13973031D01*
X2752563Y-13973031D02*
X2762087Y-13963508D01*
X2762087Y-13963508D02*
X2781134Y-13953984D01*
X2933515Y-14134936D02*
X2943039Y-14144460D01*
X2943039Y-14144460D02*
X2933515Y-14153984D01*
X2933515Y-14153984D02*
X2923991Y-14144460D01*
X2923991Y-14144460D02*
X2933515Y-14134936D01*
X2933515Y-14134936D02*
X2933515Y-14153984D01*
X3066848Y-13953984D02*
X3085896Y-13953984D01*
X3085896Y-13953984D02*
X3104944Y-13963508D01*
X3104944Y-13963508D02*
X3114467Y-13973031D01*
X3114467Y-13973031D02*
X3123991Y-13992079D01*
X3123991Y-13992079D02*
X3133515Y-14030174D01*
X3133515Y-14030174D02*
X3133515Y-14077793D01*
X3133515Y-14077793D02*
X3123991Y-14115888D01*
X3123991Y-14115888D02*
X3114467Y-14134936D01*
X3114467Y-14134936D02*
X3104944Y-14144460D01*
X3104944Y-14144460D02*
X3085896Y-14153984D01*
X3085896Y-14153984D02*
X3066848Y-14153984D01*
X3066848Y-14153984D02*
X3047801Y-14144460D01*
X3047801Y-14144460D02*
X3038277Y-14134936D01*
X3038277Y-14134936D02*
X3028753Y-14115888D01*
X3028753Y-14115888D02*
X3019229Y-14077793D01*
X3019229Y-14077793D02*
X3019229Y-14030174D01*
X3019229Y-14030174D02*
X3028753Y-13992079D01*
X3028753Y-13992079D02*
X3038277Y-13973031D01*
X3038277Y-13973031D02*
X3047801Y-13963508D01*
X3047801Y-13963508D02*
X3066848Y-13953984D01*
X3323991Y-14153984D02*
X3209706Y-14153984D01*
X3266848Y-14153984D02*
X3266848Y-13953984D01*
X3266848Y-13953984D02*
X3247801Y-13982555D01*
X3247801Y-13982555D02*
X3228753Y-14001603D01*
X3228753Y-14001603D02*
X3209706Y-14011127D01*
X3514467Y-14153984D02*
X3400182Y-14153984D01*
X3457325Y-14153984D02*
X3457325Y-13953984D01*
X3457325Y-13953984D02*
X3438277Y-13982555D01*
X3438277Y-13982555D02*
X3419229Y-14001603D01*
X3419229Y-14001603D02*
X3400182Y-14011127D01*
X3628753Y-14039698D02*
X3609706Y-14030174D01*
X3609706Y-14030174D02*
X3600182Y-14020650D01*
X3600182Y-14020650D02*
X3590658Y-14001603D01*
X3590658Y-14001603D02*
X3590658Y-13992079D01*
X3590658Y-13992079D02*
X3600182Y-13973031D01*
X3600182Y-13973031D02*
X3609706Y-13963508D01*
X3609706Y-13963508D02*
X3628753Y-13953984D01*
X3628753Y-13953984D02*
X3666848Y-13953984D01*
X3666848Y-13953984D02*
X3685896Y-13963508D01*
X3685896Y-13963508D02*
X3695420Y-13973031D01*
X3695420Y-13973031D02*
X3704944Y-13992079D01*
X3704944Y-13992079D02*
X3704944Y-14001603D01*
X3704944Y-14001603D02*
X3695420Y-14020650D01*
X3695420Y-14020650D02*
X3685896Y-14030174D01*
X3685896Y-14030174D02*
X3666848Y-14039698D01*
X3666848Y-14039698D02*
X3628753Y-14039698D01*
X3628753Y-14039698D02*
X3609706Y-14049222D01*
X3609706Y-14049222D02*
X3600182Y-14058746D01*
X3600182Y-14058746D02*
X3590658Y-14077793D01*
X3590658Y-14077793D02*
X3590658Y-14115888D01*
X3590658Y-14115888D02*
X3600182Y-14134936D01*
X3600182Y-14134936D02*
X3609706Y-14144460D01*
X3609706Y-14144460D02*
X3628753Y-14153984D01*
X3628753Y-14153984D02*
X3666848Y-14153984D01*
X3666848Y-14153984D02*
X3685896Y-14144460D01*
X3685896Y-14144460D02*
X3695420Y-14134936D01*
X3695420Y-14134936D02*
X3704944Y-14115888D01*
X3704944Y-14115888D02*
X3704944Y-14077793D01*
X3704944Y-14077793D02*
X3695420Y-14058746D01*
X3695420Y-14058746D02*
X3685896Y-14049222D01*
X3685896Y-14049222D02*
X3666848Y-14039698D01*
X3781134Y-13953984D02*
X3781134Y-13992079D01*
X3857325Y-13953984D02*
X3857325Y-13992079D01*
X4152563Y-14230174D02*
X4143039Y-14220650D01*
X4143039Y-14220650D02*
X4123991Y-14192079D01*
X4123991Y-14192079D02*
X4114468Y-14173031D01*
X4114468Y-14173031D02*
X4104944Y-14144460D01*
X4104944Y-14144460D02*
X4095420Y-14096841D01*
X4095420Y-14096841D02*
X4095420Y-14058746D01*
X4095420Y-14058746D02*
X4104944Y-14011127D01*
X4104944Y-14011127D02*
X4114468Y-13982555D01*
X4114468Y-13982555D02*
X4123991Y-13963508D01*
X4123991Y-13963508D02*
X4143039Y-13934936D01*
X4143039Y-13934936D02*
X4152563Y-13925412D01*
X4323991Y-13953984D02*
X4228753Y-13953984D01*
X4228753Y-13953984D02*
X4219230Y-14049222D01*
X4219230Y-14049222D02*
X4228753Y-14039698D01*
X4228753Y-14039698D02*
X4247801Y-14030174D01*
X4247801Y-14030174D02*
X4295420Y-14030174D01*
X4295420Y-14030174D02*
X4314468Y-14039698D01*
X4314468Y-14039698D02*
X4323991Y-14049222D01*
X4323991Y-14049222D02*
X4333515Y-14068269D01*
X4333515Y-14068269D02*
X4333515Y-14115888D01*
X4333515Y-14115888D02*
X4323991Y-14134936D01*
X4323991Y-14134936D02*
X4314468Y-14144460D01*
X4314468Y-14144460D02*
X4295420Y-14153984D01*
X4295420Y-14153984D02*
X4247801Y-14153984D01*
X4247801Y-14153984D02*
X4228753Y-14144460D01*
X4228753Y-14144460D02*
X4219230Y-14134936D01*
X4400182Y-13953984D02*
X4523991Y-13953984D01*
X4523991Y-13953984D02*
X4457325Y-14030174D01*
X4457325Y-14030174D02*
X4485896Y-14030174D01*
X4485896Y-14030174D02*
X4504944Y-14039698D01*
X4504944Y-14039698D02*
X4514468Y-14049222D01*
X4514468Y-14049222D02*
X4523991Y-14068269D01*
X4523991Y-14068269D02*
X4523991Y-14115888D01*
X4523991Y-14115888D02*
X4514468Y-14134936D01*
X4514468Y-14134936D02*
X4504944Y-14144460D01*
X4504944Y-14144460D02*
X4485896Y-14153984D01*
X4485896Y-14153984D02*
X4428753Y-14153984D01*
X4428753Y-14153984D02*
X4409706Y-14144460D01*
X4409706Y-14144460D02*
X4400182Y-14134936D01*
X4762087Y-14153984D02*
X4762087Y-13953984D01*
X4847801Y-14153984D02*
X4847801Y-14049222D01*
X4847801Y-14049222D02*
X4838277Y-14030174D01*
X4838277Y-14030174D02*
X4819230Y-14020650D01*
X4819230Y-14020650D02*
X4790658Y-14020650D01*
X4790658Y-14020650D02*
X4771611Y-14030174D01*
X4771611Y-14030174D02*
X4762087Y-14039698D01*
X4971611Y-14153984D02*
X4952563Y-14144460D01*
X4952563Y-14144460D02*
X4943039Y-14134936D01*
X4943039Y-14134936D02*
X4933515Y-14115888D01*
X4933515Y-14115888D02*
X4933515Y-14058746D01*
X4933515Y-14058746D02*
X4943039Y-14039698D01*
X4943039Y-14039698D02*
X4952563Y-14030174D01*
X4952563Y-14030174D02*
X4971611Y-14020650D01*
X4971611Y-14020650D02*
X5000182Y-14020650D01*
X5000182Y-14020650D02*
X5019230Y-14030174D01*
X5019230Y-14030174D02*
X5028753Y-14039698D01*
X5028753Y-14039698D02*
X5038277Y-14058746D01*
X5038277Y-14058746D02*
X5038277Y-14115888D01*
X5038277Y-14115888D02*
X5028753Y-14134936D01*
X5028753Y-14134936D02*
X5019230Y-14144460D01*
X5019230Y-14144460D02*
X5000182Y-14153984D01*
X5000182Y-14153984D02*
X4971611Y-14153984D01*
X5152563Y-14153984D02*
X5133515Y-14144460D01*
X5133515Y-14144460D02*
X5123992Y-14125412D01*
X5123992Y-14125412D02*
X5123992Y-13953984D01*
X5304944Y-14144460D02*
X5285896Y-14153984D01*
X5285896Y-14153984D02*
X5247801Y-14153984D01*
X5247801Y-14153984D02*
X5228753Y-14144460D01*
X5228753Y-14144460D02*
X5219230Y-14125412D01*
X5219230Y-14125412D02*
X5219230Y-14049222D01*
X5219230Y-14049222D02*
X5228753Y-14030174D01*
X5228753Y-14030174D02*
X5247801Y-14020650D01*
X5247801Y-14020650D02*
X5285896Y-14020650D01*
X5285896Y-14020650D02*
X5304944Y-14030174D01*
X5304944Y-14030174D02*
X5314468Y-14049222D01*
X5314468Y-14049222D02*
X5314468Y-14068269D01*
X5314468Y-14068269D02*
X5219230Y-14087317D01*
X5390658Y-14144460D02*
X5409706Y-14153984D01*
X5409706Y-14153984D02*
X5447801Y-14153984D01*
X5447801Y-14153984D02*
X5466849Y-14144460D01*
X5466849Y-14144460D02*
X5476373Y-14125412D01*
X5476373Y-14125412D02*
X5476373Y-14115888D01*
X5476373Y-14115888D02*
X5466849Y-14096841D01*
X5466849Y-14096841D02*
X5447801Y-14087317D01*
X5447801Y-14087317D02*
X5419230Y-14087317D01*
X5419230Y-14087317D02*
X5400182Y-14077793D01*
X5400182Y-14077793D02*
X5390658Y-14058746D01*
X5390658Y-14058746D02*
X5390658Y-14049222D01*
X5390658Y-14049222D02*
X5400182Y-14030174D01*
X5400182Y-14030174D02*
X5419230Y-14020650D01*
X5419230Y-14020650D02*
X5447801Y-14020650D01*
X5447801Y-14020650D02*
X5466849Y-14030174D01*
X5543039Y-14230174D02*
X5552563Y-14220650D01*
X5552563Y-14220650D02*
X5571611Y-14192079D01*
X5571611Y-14192079D02*
X5581134Y-14173031D01*
X5581134Y-14173031D02*
X5590658Y-14144460D01*
X5590658Y-14144460D02*
X5600182Y-14096841D01*
X5600182Y-14096841D02*
X5600182Y-14058746D01*
X5600182Y-14058746D02*
X5590658Y-14011127D01*
X5590658Y-14011127D02*
X5581134Y-13982555D01*
X5581134Y-13982555D02*
X5571611Y-13963508D01*
X5571611Y-13963508D02*
X5552563Y-13934936D01*
X5552563Y-13934936D02*
X5543039Y-13925412D01*
D12*
X577500Y-14326500D02*
G75*
G02*
X526700Y-14326500I-25400J0D01*
G01*
X526700Y-14326500D02*
G75*
G02*
X577500Y-14326500I25400J0D01*
G01*
D11*
X876372Y-14217984D02*
X895420Y-14217984D01*
X895420Y-14217984D02*
X914467Y-14227508D01*
X914467Y-14227508D02*
X923991Y-14237031D01*
X923991Y-14237031D02*
X933515Y-14256079D01*
X933515Y-14256079D02*
X943039Y-14294174D01*
X943039Y-14294174D02*
X943039Y-14341793D01*
X943039Y-14341793D02*
X933515Y-14379888D01*
X933515Y-14379888D02*
X923991Y-14398936D01*
X923991Y-14398936D02*
X914467Y-14408460D01*
X914467Y-14408460D02*
X895420Y-14417984D01*
X895420Y-14417984D02*
X876372Y-14417984D01*
X876372Y-14417984D02*
X857324Y-14408460D01*
X857324Y-14408460D02*
X847801Y-14398936D01*
X847801Y-14398936D02*
X838277Y-14379888D01*
X838277Y-14379888D02*
X828753Y-14341793D01*
X828753Y-14341793D02*
X828753Y-14294174D01*
X828753Y-14294174D02*
X838277Y-14256079D01*
X838277Y-14256079D02*
X847801Y-14237031D01*
X847801Y-14237031D02*
X857324Y-14227508D01*
X857324Y-14227508D02*
X876372Y-14217984D01*
X1028753Y-14398936D02*
X1038277Y-14408460D01*
X1038277Y-14408460D02*
X1028753Y-14417984D01*
X1028753Y-14417984D02*
X1019229Y-14408460D01*
X1019229Y-14408460D02*
X1028753Y-14398936D01*
X1028753Y-14398936D02*
X1028753Y-14417984D01*
X1219229Y-14217984D02*
X1123991Y-14217984D01*
X1123991Y-14217984D02*
X1114467Y-14313222D01*
X1114467Y-14313222D02*
X1123991Y-14303698D01*
X1123991Y-14303698D02*
X1143039Y-14294174D01*
X1143039Y-14294174D02*
X1190658Y-14294174D01*
X1190658Y-14294174D02*
X1209705Y-14303698D01*
X1209705Y-14303698D02*
X1219229Y-14313222D01*
X1219229Y-14313222D02*
X1228753Y-14332269D01*
X1228753Y-14332269D02*
X1228753Y-14379888D01*
X1228753Y-14379888D02*
X1219229Y-14398936D01*
X1219229Y-14398936D02*
X1209705Y-14408460D01*
X1209705Y-14408460D02*
X1190658Y-14417984D01*
X1190658Y-14417984D02*
X1143039Y-14417984D01*
X1143039Y-14417984D02*
X1123991Y-14408460D01*
X1123991Y-14408460D02*
X1114467Y-14398936D01*
X1352563Y-14217984D02*
X1371610Y-14217984D01*
X1371610Y-14217984D02*
X1390658Y-14227508D01*
X1390658Y-14227508D02*
X1400182Y-14237031D01*
X1400182Y-14237031D02*
X1409705Y-14256079D01*
X1409705Y-14256079D02*
X1419229Y-14294174D01*
X1419229Y-14294174D02*
X1419229Y-14341793D01*
X1419229Y-14341793D02*
X1409705Y-14379888D01*
X1409705Y-14379888D02*
X1400182Y-14398936D01*
X1400182Y-14398936D02*
X1390658Y-14408460D01*
X1390658Y-14408460D02*
X1371610Y-14417984D01*
X1371610Y-14417984D02*
X1352563Y-14417984D01*
X1352563Y-14417984D02*
X1333515Y-14408460D01*
X1333515Y-14408460D02*
X1323991Y-14398936D01*
X1323991Y-14398936D02*
X1314467Y-14379888D01*
X1314467Y-14379888D02*
X1304944Y-14341793D01*
X1304944Y-14341793D02*
X1304944Y-14294174D01*
X1304944Y-14294174D02*
X1314467Y-14256079D01*
X1314467Y-14256079D02*
X1323991Y-14237031D01*
X1323991Y-14237031D02*
X1333515Y-14227508D01*
X1333515Y-14227508D02*
X1352563Y-14217984D01*
X1533515Y-14303698D02*
X1514467Y-14294174D01*
X1514467Y-14294174D02*
X1504943Y-14284650D01*
X1504943Y-14284650D02*
X1495420Y-14265603D01*
X1495420Y-14265603D02*
X1495420Y-14256079D01*
X1495420Y-14256079D02*
X1504943Y-14237031D01*
X1504943Y-14237031D02*
X1514467Y-14227508D01*
X1514467Y-14227508D02*
X1533515Y-14217984D01*
X1533515Y-14217984D02*
X1571610Y-14217984D01*
X1571610Y-14217984D02*
X1590658Y-14227508D01*
X1590658Y-14227508D02*
X1600182Y-14237031D01*
X1600182Y-14237031D02*
X1609705Y-14256079D01*
X1609705Y-14256079D02*
X1609705Y-14265603D01*
X1609705Y-14265603D02*
X1600182Y-14284650D01*
X1600182Y-14284650D02*
X1590658Y-14294174D01*
X1590658Y-14294174D02*
X1571610Y-14303698D01*
X1571610Y-14303698D02*
X1533515Y-14303698D01*
X1533515Y-14303698D02*
X1514467Y-14313222D01*
X1514467Y-14313222D02*
X1504943Y-14322746D01*
X1504943Y-14322746D02*
X1495420Y-14341793D01*
X1495420Y-14341793D02*
X1495420Y-14379888D01*
X1495420Y-14379888D02*
X1504943Y-14398936D01*
X1504943Y-14398936D02*
X1514467Y-14408460D01*
X1514467Y-14408460D02*
X1533515Y-14417984D01*
X1533515Y-14417984D02*
X1571610Y-14417984D01*
X1571610Y-14417984D02*
X1590658Y-14408460D01*
X1590658Y-14408460D02*
X1600182Y-14398936D01*
X1600182Y-14398936D02*
X1609705Y-14379888D01*
X1609705Y-14379888D02*
X1609705Y-14341793D01*
X1609705Y-14341793D02*
X1600182Y-14322746D01*
X1600182Y-14322746D02*
X1590658Y-14313222D01*
X1590658Y-14313222D02*
X1571610Y-14303698D01*
X1695420Y-14417984D02*
X1695420Y-14284650D01*
X1695420Y-14303698D02*
X1704943Y-14294174D01*
X1704943Y-14294174D02*
X1723991Y-14284650D01*
X1723991Y-14284650D02*
X1752563Y-14284650D01*
X1752563Y-14284650D02*
X1771610Y-14294174D01*
X1771610Y-14294174D02*
X1781134Y-14313222D01*
X1781134Y-14313222D02*
X1781134Y-14417984D01*
X1781134Y-14313222D02*
X1790658Y-14294174D01*
X1790658Y-14294174D02*
X1809705Y-14284650D01*
X1809705Y-14284650D02*
X1838277Y-14284650D01*
X1838277Y-14284650D02*
X1857324Y-14294174D01*
X1857324Y-14294174D02*
X1866848Y-14313222D01*
X1866848Y-14313222D02*
X1866848Y-14417984D01*
X1962086Y-14417984D02*
X1962086Y-14284650D01*
X1962086Y-14303698D02*
X1971610Y-14294174D01*
X1971610Y-14294174D02*
X1990658Y-14284650D01*
X1990658Y-14284650D02*
X2019229Y-14284650D01*
X2019229Y-14284650D02*
X2038277Y-14294174D01*
X2038277Y-14294174D02*
X2047801Y-14313222D01*
X2047801Y-14313222D02*
X2047801Y-14417984D01*
X2047801Y-14313222D02*
X2057324Y-14294174D01*
X2057324Y-14294174D02*
X2076372Y-14284650D01*
X2076372Y-14284650D02*
X2104944Y-14284650D01*
X2104944Y-14284650D02*
X2123991Y-14294174D01*
X2123991Y-14294174D02*
X2133515Y-14313222D01*
X2133515Y-14313222D02*
X2133515Y-14417984D01*
X2523991Y-14208460D02*
X2352563Y-14465603D01*
X2781134Y-14217984D02*
X2800182Y-14217984D01*
X2800182Y-14217984D02*
X2819229Y-14227508D01*
X2819229Y-14227508D02*
X2828753Y-14237031D01*
X2828753Y-14237031D02*
X2838277Y-14256079D01*
X2838277Y-14256079D02*
X2847801Y-14294174D01*
X2847801Y-14294174D02*
X2847801Y-14341793D01*
X2847801Y-14341793D02*
X2838277Y-14379888D01*
X2838277Y-14379888D02*
X2828753Y-14398936D01*
X2828753Y-14398936D02*
X2819229Y-14408460D01*
X2819229Y-14408460D02*
X2800182Y-14417984D01*
X2800182Y-14417984D02*
X2781134Y-14417984D01*
X2781134Y-14417984D02*
X2762087Y-14408460D01*
X2762087Y-14408460D02*
X2752563Y-14398936D01*
X2752563Y-14398936D02*
X2743039Y-14379888D01*
X2743039Y-14379888D02*
X2733515Y-14341793D01*
X2733515Y-14341793D02*
X2733515Y-14294174D01*
X2733515Y-14294174D02*
X2743039Y-14256079D01*
X2743039Y-14256079D02*
X2752563Y-14237031D01*
X2752563Y-14237031D02*
X2762087Y-14227508D01*
X2762087Y-14227508D02*
X2781134Y-14217984D01*
X2933515Y-14398936D02*
X2943039Y-14408460D01*
X2943039Y-14408460D02*
X2933515Y-14417984D01*
X2933515Y-14417984D02*
X2923991Y-14408460D01*
X2923991Y-14408460D02*
X2933515Y-14398936D01*
X2933515Y-14398936D02*
X2933515Y-14417984D01*
X3066848Y-14217984D02*
X3085896Y-14217984D01*
X3085896Y-14217984D02*
X3104944Y-14227508D01*
X3104944Y-14227508D02*
X3114467Y-14237031D01*
X3114467Y-14237031D02*
X3123991Y-14256079D01*
X3123991Y-14256079D02*
X3133515Y-14294174D01*
X3133515Y-14294174D02*
X3133515Y-14341793D01*
X3133515Y-14341793D02*
X3123991Y-14379888D01*
X3123991Y-14379888D02*
X3114467Y-14398936D01*
X3114467Y-14398936D02*
X3104944Y-14408460D01*
X3104944Y-14408460D02*
X3085896Y-14417984D01*
X3085896Y-14417984D02*
X3066848Y-14417984D01*
X3066848Y-14417984D02*
X3047801Y-14408460D01*
X3047801Y-14408460D02*
X3038277Y-14398936D01*
X3038277Y-14398936D02*
X3028753Y-14379888D01*
X3028753Y-14379888D02*
X3019229Y-14341793D01*
X3019229Y-14341793D02*
X3019229Y-14294174D01*
X3019229Y-14294174D02*
X3028753Y-14256079D01*
X3028753Y-14256079D02*
X3038277Y-14237031D01*
X3038277Y-14237031D02*
X3047801Y-14227508D01*
X3047801Y-14227508D02*
X3066848Y-14217984D01*
X3209706Y-14237031D02*
X3219229Y-14227508D01*
X3219229Y-14227508D02*
X3238277Y-14217984D01*
X3238277Y-14217984D02*
X3285896Y-14217984D01*
X3285896Y-14217984D02*
X3304944Y-14227508D01*
X3304944Y-14227508D02*
X3314467Y-14237031D01*
X3314467Y-14237031D02*
X3323991Y-14256079D01*
X3323991Y-14256079D02*
X3323991Y-14275127D01*
X3323991Y-14275127D02*
X3314467Y-14303698D01*
X3314467Y-14303698D02*
X3200182Y-14417984D01*
X3200182Y-14417984D02*
X3323991Y-14417984D01*
X3447801Y-14217984D02*
X3466848Y-14217984D01*
X3466848Y-14217984D02*
X3485896Y-14227508D01*
X3485896Y-14227508D02*
X3495420Y-14237031D01*
X3495420Y-14237031D02*
X3504944Y-14256079D01*
X3504944Y-14256079D02*
X3514467Y-14294174D01*
X3514467Y-14294174D02*
X3514467Y-14341793D01*
X3514467Y-14341793D02*
X3504944Y-14379888D01*
X3504944Y-14379888D02*
X3495420Y-14398936D01*
X3495420Y-14398936D02*
X3485896Y-14408460D01*
X3485896Y-14408460D02*
X3466848Y-14417984D01*
X3466848Y-14417984D02*
X3447801Y-14417984D01*
X3447801Y-14417984D02*
X3428753Y-14408460D01*
X3428753Y-14408460D02*
X3419229Y-14398936D01*
X3419229Y-14398936D02*
X3409706Y-14379888D01*
X3409706Y-14379888D02*
X3400182Y-14341793D01*
X3400182Y-14341793D02*
X3400182Y-14294174D01*
X3400182Y-14294174D02*
X3409706Y-14256079D01*
X3409706Y-14256079D02*
X3419229Y-14237031D01*
X3419229Y-14237031D02*
X3428753Y-14227508D01*
X3428753Y-14227508D02*
X3447801Y-14217984D01*
X3638277Y-14217984D02*
X3657325Y-14217984D01*
X3657325Y-14217984D02*
X3676372Y-14227508D01*
X3676372Y-14227508D02*
X3685896Y-14237031D01*
X3685896Y-14237031D02*
X3695420Y-14256079D01*
X3695420Y-14256079D02*
X3704944Y-14294174D01*
X3704944Y-14294174D02*
X3704944Y-14341793D01*
X3704944Y-14341793D02*
X3695420Y-14379888D01*
X3695420Y-14379888D02*
X3685896Y-14398936D01*
X3685896Y-14398936D02*
X3676372Y-14408460D01*
X3676372Y-14408460D02*
X3657325Y-14417984D01*
X3657325Y-14417984D02*
X3638277Y-14417984D01*
X3638277Y-14417984D02*
X3619229Y-14408460D01*
X3619229Y-14408460D02*
X3609706Y-14398936D01*
X3609706Y-14398936D02*
X3600182Y-14379888D01*
X3600182Y-14379888D02*
X3590658Y-14341793D01*
X3590658Y-14341793D02*
X3590658Y-14294174D01*
X3590658Y-14294174D02*
X3600182Y-14256079D01*
X3600182Y-14256079D02*
X3609706Y-14237031D01*
X3609706Y-14237031D02*
X3619229Y-14227508D01*
X3619229Y-14227508D02*
X3638277Y-14217984D01*
X3781134Y-14217984D02*
X3781134Y-14256079D01*
X3857325Y-14217984D02*
X3857325Y-14256079D01*
X4152563Y-14494174D02*
X4143039Y-14484650D01*
X4143039Y-14484650D02*
X4123991Y-14456079D01*
X4123991Y-14456079D02*
X4114468Y-14437031D01*
X4114468Y-14437031D02*
X4104944Y-14408460D01*
X4104944Y-14408460D02*
X4095420Y-14360841D01*
X4095420Y-14360841D02*
X4095420Y-14322746D01*
X4095420Y-14322746D02*
X4104944Y-14275127D01*
X4104944Y-14275127D02*
X4114468Y-14246555D01*
X4114468Y-14246555D02*
X4123991Y-14227508D01*
X4123991Y-14227508D02*
X4143039Y-14198936D01*
X4143039Y-14198936D02*
X4152563Y-14189412D01*
X4219230Y-14237031D02*
X4228753Y-14227508D01*
X4228753Y-14227508D02*
X4247801Y-14217984D01*
X4247801Y-14217984D02*
X4295420Y-14217984D01*
X4295420Y-14217984D02*
X4314468Y-14227508D01*
X4314468Y-14227508D02*
X4323991Y-14237031D01*
X4323991Y-14237031D02*
X4333515Y-14256079D01*
X4333515Y-14256079D02*
X4333515Y-14275127D01*
X4333515Y-14275127D02*
X4323991Y-14303698D01*
X4323991Y-14303698D02*
X4209706Y-14417984D01*
X4209706Y-14417984D02*
X4333515Y-14417984D01*
X4447801Y-14303698D02*
X4428753Y-14294174D01*
X4428753Y-14294174D02*
X4419230Y-14284650D01*
X4419230Y-14284650D02*
X4409706Y-14265603D01*
X4409706Y-14265603D02*
X4409706Y-14256079D01*
X4409706Y-14256079D02*
X4419230Y-14237031D01*
X4419230Y-14237031D02*
X4428753Y-14227508D01*
X4428753Y-14227508D02*
X4447801Y-14217984D01*
X4447801Y-14217984D02*
X4485896Y-14217984D01*
X4485896Y-14217984D02*
X4504944Y-14227508D01*
X4504944Y-14227508D02*
X4514468Y-14237031D01*
X4514468Y-14237031D02*
X4523991Y-14256079D01*
X4523991Y-14256079D02*
X4523991Y-14265603D01*
X4523991Y-14265603D02*
X4514468Y-14284650D01*
X4514468Y-14284650D02*
X4504944Y-14294174D01*
X4504944Y-14294174D02*
X4485896Y-14303698D01*
X4485896Y-14303698D02*
X4447801Y-14303698D01*
X4447801Y-14303698D02*
X4428753Y-14313222D01*
X4428753Y-14313222D02*
X4419230Y-14322746D01*
X4419230Y-14322746D02*
X4409706Y-14341793D01*
X4409706Y-14341793D02*
X4409706Y-14379888D01*
X4409706Y-14379888D02*
X4419230Y-14398936D01*
X4419230Y-14398936D02*
X4428753Y-14408460D01*
X4428753Y-14408460D02*
X4447801Y-14417984D01*
X4447801Y-14417984D02*
X4485896Y-14417984D01*
X4485896Y-14417984D02*
X4504944Y-14408460D01*
X4504944Y-14408460D02*
X4514468Y-14398936D01*
X4514468Y-14398936D02*
X4523991Y-14379888D01*
X4523991Y-14379888D02*
X4523991Y-14341793D01*
X4523991Y-14341793D02*
X4514468Y-14322746D01*
X4514468Y-14322746D02*
X4504944Y-14313222D01*
X4504944Y-14313222D02*
X4485896Y-14303698D01*
X4762087Y-14417984D02*
X4762087Y-14217984D01*
X4847801Y-14417984D02*
X4847801Y-14313222D01*
X4847801Y-14313222D02*
X4838277Y-14294174D01*
X4838277Y-14294174D02*
X4819230Y-14284650D01*
X4819230Y-14284650D02*
X4790658Y-14284650D01*
X4790658Y-14284650D02*
X4771611Y-14294174D01*
X4771611Y-14294174D02*
X4762087Y-14303698D01*
X4971611Y-14417984D02*
X4952563Y-14408460D01*
X4952563Y-14408460D02*
X4943039Y-14398936D01*
X4943039Y-14398936D02*
X4933515Y-14379888D01*
X4933515Y-14379888D02*
X4933515Y-14322746D01*
X4933515Y-14322746D02*
X4943039Y-14303698D01*
X4943039Y-14303698D02*
X4952563Y-14294174D01*
X4952563Y-14294174D02*
X4971611Y-14284650D01*
X4971611Y-14284650D02*
X5000182Y-14284650D01*
X5000182Y-14284650D02*
X5019230Y-14294174D01*
X5019230Y-14294174D02*
X5028753Y-14303698D01*
X5028753Y-14303698D02*
X5038277Y-14322746D01*
X5038277Y-14322746D02*
X5038277Y-14379888D01*
X5038277Y-14379888D02*
X5028753Y-14398936D01*
X5028753Y-14398936D02*
X5019230Y-14408460D01*
X5019230Y-14408460D02*
X5000182Y-14417984D01*
X5000182Y-14417984D02*
X4971611Y-14417984D01*
X5152563Y-14417984D02*
X5133515Y-14408460D01*
X5133515Y-14408460D02*
X5123992Y-14389412D01*
X5123992Y-14389412D02*
X5123992Y-14217984D01*
X5304944Y-14408460D02*
X5285896Y-14417984D01*
X5285896Y-14417984D02*
X5247801Y-14417984D01*
X5247801Y-14417984D02*
X5228753Y-14408460D01*
X5228753Y-14408460D02*
X5219230Y-14389412D01*
X5219230Y-14389412D02*
X5219230Y-14313222D01*
X5219230Y-14313222D02*
X5228753Y-14294174D01*
X5228753Y-14294174D02*
X5247801Y-14284650D01*
X5247801Y-14284650D02*
X5285896Y-14284650D01*
X5285896Y-14284650D02*
X5304944Y-14294174D01*
X5304944Y-14294174D02*
X5314468Y-14313222D01*
X5314468Y-14313222D02*
X5314468Y-14332269D01*
X5314468Y-14332269D02*
X5219230Y-14351317D01*
X5390658Y-14408460D02*
X5409706Y-14417984D01*
X5409706Y-14417984D02*
X5447801Y-14417984D01*
X5447801Y-14417984D02*
X5466849Y-14408460D01*
X5466849Y-14408460D02*
X5476373Y-14389412D01*
X5476373Y-14389412D02*
X5476373Y-14379888D01*
X5476373Y-14379888D02*
X5466849Y-14360841D01*
X5466849Y-14360841D02*
X5447801Y-14351317D01*
X5447801Y-14351317D02*
X5419230Y-14351317D01*
X5419230Y-14351317D02*
X5400182Y-14341793D01*
X5400182Y-14341793D02*
X5390658Y-14322746D01*
X5390658Y-14322746D02*
X5390658Y-14313222D01*
X5390658Y-14313222D02*
X5400182Y-14294174D01*
X5400182Y-14294174D02*
X5419230Y-14284650D01*
X5419230Y-14284650D02*
X5447801Y-14284650D01*
X5447801Y-14284650D02*
X5466849Y-14294174D01*
X5543039Y-14494174D02*
X5552563Y-14484650D01*
X5552563Y-14484650D02*
X5571611Y-14456079D01*
X5571611Y-14456079D02*
X5581134Y-14437031D01*
X5581134Y-14437031D02*
X5590658Y-14408460D01*
X5590658Y-14408460D02*
X5600182Y-14360841D01*
X5600182Y-14360841D02*
X5600182Y-14322746D01*
X5600182Y-14322746D02*
X5590658Y-14275127D01*
X5590658Y-14275127D02*
X5581134Y-14246555D01*
X5581134Y-14246555D02*
X5571611Y-14227508D01*
X5571611Y-14227508D02*
X5552563Y-14198936D01*
X5552563Y-14198936D02*
X5543039Y-14189412D01*
X477500Y-14490500D02*
X477500Y-14690500D01*
X377500Y-14590500D02*
X577500Y-14590500D01*
X828753Y-14501031D02*
X838277Y-14491508D01*
X838277Y-14491508D02*
X857324Y-14481984D01*
X857324Y-14481984D02*
X904943Y-14481984D01*
X904943Y-14481984D02*
X923991Y-14491508D01*
X923991Y-14491508D02*
X933515Y-14501031D01*
X933515Y-14501031D02*
X943039Y-14520079D01*
X943039Y-14520079D02*
X943039Y-14539127D01*
X943039Y-14539127D02*
X933515Y-14567698D01*
X933515Y-14567698D02*
X819229Y-14681984D01*
X819229Y-14681984D02*
X943039Y-14681984D01*
X1028753Y-14662936D02*
X1038277Y-14672460D01*
X1038277Y-14672460D02*
X1028753Y-14681984D01*
X1028753Y-14681984D02*
X1019229Y-14672460D01*
X1019229Y-14672460D02*
X1028753Y-14662936D01*
X1028753Y-14662936D02*
X1028753Y-14681984D01*
X1162086Y-14481984D02*
X1181134Y-14481984D01*
X1181134Y-14481984D02*
X1200182Y-14491508D01*
X1200182Y-14491508D02*
X1209705Y-14501031D01*
X1209705Y-14501031D02*
X1219229Y-14520079D01*
X1219229Y-14520079D02*
X1228753Y-14558174D01*
X1228753Y-14558174D02*
X1228753Y-14605793D01*
X1228753Y-14605793D02*
X1219229Y-14643888D01*
X1219229Y-14643888D02*
X1209705Y-14662936D01*
X1209705Y-14662936D02*
X1200182Y-14672460D01*
X1200182Y-14672460D02*
X1181134Y-14681984D01*
X1181134Y-14681984D02*
X1162086Y-14681984D01*
X1162086Y-14681984D02*
X1143039Y-14672460D01*
X1143039Y-14672460D02*
X1133515Y-14662936D01*
X1133515Y-14662936D02*
X1123991Y-14643888D01*
X1123991Y-14643888D02*
X1114467Y-14605793D01*
X1114467Y-14605793D02*
X1114467Y-14558174D01*
X1114467Y-14558174D02*
X1123991Y-14520079D01*
X1123991Y-14520079D02*
X1133515Y-14501031D01*
X1133515Y-14501031D02*
X1143039Y-14491508D01*
X1143039Y-14491508D02*
X1162086Y-14481984D01*
X1352563Y-14481984D02*
X1371610Y-14481984D01*
X1371610Y-14481984D02*
X1390658Y-14491508D01*
X1390658Y-14491508D02*
X1400182Y-14501031D01*
X1400182Y-14501031D02*
X1409705Y-14520079D01*
X1409705Y-14520079D02*
X1419229Y-14558174D01*
X1419229Y-14558174D02*
X1419229Y-14605793D01*
X1419229Y-14605793D02*
X1409705Y-14643888D01*
X1409705Y-14643888D02*
X1400182Y-14662936D01*
X1400182Y-14662936D02*
X1390658Y-14672460D01*
X1390658Y-14672460D02*
X1371610Y-14681984D01*
X1371610Y-14681984D02*
X1352563Y-14681984D01*
X1352563Y-14681984D02*
X1333515Y-14672460D01*
X1333515Y-14672460D02*
X1323991Y-14662936D01*
X1323991Y-14662936D02*
X1314467Y-14643888D01*
X1314467Y-14643888D02*
X1304944Y-14605793D01*
X1304944Y-14605793D02*
X1304944Y-14558174D01*
X1304944Y-14558174D02*
X1314467Y-14520079D01*
X1314467Y-14520079D02*
X1323991Y-14501031D01*
X1323991Y-14501031D02*
X1333515Y-14491508D01*
X1333515Y-14491508D02*
X1352563Y-14481984D01*
X1543039Y-14481984D02*
X1562086Y-14481984D01*
X1562086Y-14481984D02*
X1581134Y-14491508D01*
X1581134Y-14491508D02*
X1590658Y-14501031D01*
X1590658Y-14501031D02*
X1600182Y-14520079D01*
X1600182Y-14520079D02*
X1609705Y-14558174D01*
X1609705Y-14558174D02*
X1609705Y-14605793D01*
X1609705Y-14605793D02*
X1600182Y-14643888D01*
X1600182Y-14643888D02*
X1590658Y-14662936D01*
X1590658Y-14662936D02*
X1581134Y-14672460D01*
X1581134Y-14672460D02*
X1562086Y-14681984D01*
X1562086Y-14681984D02*
X1543039Y-14681984D01*
X1543039Y-14681984D02*
X1523991Y-14672460D01*
X1523991Y-14672460D02*
X1514467Y-14662936D01*
X1514467Y-14662936D02*
X1504943Y-14643888D01*
X1504943Y-14643888D02*
X1495420Y-14605793D01*
X1495420Y-14605793D02*
X1495420Y-14558174D01*
X1495420Y-14558174D02*
X1504943Y-14520079D01*
X1504943Y-14520079D02*
X1514467Y-14501031D01*
X1514467Y-14501031D02*
X1523991Y-14491508D01*
X1523991Y-14491508D02*
X1543039Y-14481984D01*
X1695420Y-14681984D02*
X1695420Y-14548650D01*
X1695420Y-14567698D02*
X1704943Y-14558174D01*
X1704943Y-14558174D02*
X1723991Y-14548650D01*
X1723991Y-14548650D02*
X1752563Y-14548650D01*
X1752563Y-14548650D02*
X1771610Y-14558174D01*
X1771610Y-14558174D02*
X1781134Y-14577222D01*
X1781134Y-14577222D02*
X1781134Y-14681984D01*
X1781134Y-14577222D02*
X1790658Y-14558174D01*
X1790658Y-14558174D02*
X1809705Y-14548650D01*
X1809705Y-14548650D02*
X1838277Y-14548650D01*
X1838277Y-14548650D02*
X1857324Y-14558174D01*
X1857324Y-14558174D02*
X1866848Y-14577222D01*
X1866848Y-14577222D02*
X1866848Y-14681984D01*
X1962086Y-14681984D02*
X1962086Y-14548650D01*
X1962086Y-14567698D02*
X1971610Y-14558174D01*
X1971610Y-14558174D02*
X1990658Y-14548650D01*
X1990658Y-14548650D02*
X2019229Y-14548650D01*
X2019229Y-14548650D02*
X2038277Y-14558174D01*
X2038277Y-14558174D02*
X2047801Y-14577222D01*
X2047801Y-14577222D02*
X2047801Y-14681984D01*
X2047801Y-14577222D02*
X2057324Y-14558174D01*
X2057324Y-14558174D02*
X2076372Y-14548650D01*
X2076372Y-14548650D02*
X2104944Y-14548650D01*
X2104944Y-14548650D02*
X2123991Y-14558174D01*
X2123991Y-14558174D02*
X2133515Y-14577222D01*
X2133515Y-14577222D02*
X2133515Y-14681984D01*
X2523991Y-14472460D02*
X2352563Y-14729603D01*
X2781134Y-14481984D02*
X2800182Y-14481984D01*
X2800182Y-14481984D02*
X2819229Y-14491508D01*
X2819229Y-14491508D02*
X2828753Y-14501031D01*
X2828753Y-14501031D02*
X2838277Y-14520079D01*
X2838277Y-14520079D02*
X2847801Y-14558174D01*
X2847801Y-14558174D02*
X2847801Y-14605793D01*
X2847801Y-14605793D02*
X2838277Y-14643888D01*
X2838277Y-14643888D02*
X2828753Y-14662936D01*
X2828753Y-14662936D02*
X2819229Y-14672460D01*
X2819229Y-14672460D02*
X2800182Y-14681984D01*
X2800182Y-14681984D02*
X2781134Y-14681984D01*
X2781134Y-14681984D02*
X2762087Y-14672460D01*
X2762087Y-14672460D02*
X2752563Y-14662936D01*
X2752563Y-14662936D02*
X2743039Y-14643888D01*
X2743039Y-14643888D02*
X2733515Y-14605793D01*
X2733515Y-14605793D02*
X2733515Y-14558174D01*
X2733515Y-14558174D02*
X2743039Y-14520079D01*
X2743039Y-14520079D02*
X2752563Y-14501031D01*
X2752563Y-14501031D02*
X2762087Y-14491508D01*
X2762087Y-14491508D02*
X2781134Y-14481984D01*
X2933515Y-14662936D02*
X2943039Y-14672460D01*
X2943039Y-14672460D02*
X2933515Y-14681984D01*
X2933515Y-14681984D02*
X2923991Y-14672460D01*
X2923991Y-14672460D02*
X2933515Y-14662936D01*
X2933515Y-14662936D02*
X2933515Y-14681984D01*
X3066848Y-14481984D02*
X3085896Y-14481984D01*
X3085896Y-14481984D02*
X3104944Y-14491508D01*
X3104944Y-14491508D02*
X3114467Y-14501031D01*
X3114467Y-14501031D02*
X3123991Y-14520079D01*
X3123991Y-14520079D02*
X3133515Y-14558174D01*
X3133515Y-14558174D02*
X3133515Y-14605793D01*
X3133515Y-14605793D02*
X3123991Y-14643888D01*
X3123991Y-14643888D02*
X3114467Y-14662936D01*
X3114467Y-14662936D02*
X3104944Y-14672460D01*
X3104944Y-14672460D02*
X3085896Y-14681984D01*
X3085896Y-14681984D02*
X3066848Y-14681984D01*
X3066848Y-14681984D02*
X3047801Y-14672460D01*
X3047801Y-14672460D02*
X3038277Y-14662936D01*
X3038277Y-14662936D02*
X3028753Y-14643888D01*
X3028753Y-14643888D02*
X3019229Y-14605793D01*
X3019229Y-14605793D02*
X3019229Y-14558174D01*
X3019229Y-14558174D02*
X3028753Y-14520079D01*
X3028753Y-14520079D02*
X3038277Y-14501031D01*
X3038277Y-14501031D02*
X3047801Y-14491508D01*
X3047801Y-14491508D02*
X3066848Y-14481984D01*
X3200182Y-14481984D02*
X3333515Y-14481984D01*
X3333515Y-14481984D02*
X3247801Y-14681984D01*
X3438277Y-14567698D02*
X3419229Y-14558174D01*
X3419229Y-14558174D02*
X3409706Y-14548650D01*
X3409706Y-14548650D02*
X3400182Y-14529603D01*
X3400182Y-14529603D02*
X3400182Y-14520079D01*
X3400182Y-14520079D02*
X3409706Y-14501031D01*
X3409706Y-14501031D02*
X3419229Y-14491508D01*
X3419229Y-14491508D02*
X3438277Y-14481984D01*
X3438277Y-14481984D02*
X3476372Y-14481984D01*
X3476372Y-14481984D02*
X3495420Y-14491508D01*
X3495420Y-14491508D02*
X3504944Y-14501031D01*
X3504944Y-14501031D02*
X3514467Y-14520079D01*
X3514467Y-14520079D02*
X3514467Y-14529603D01*
X3514467Y-14529603D02*
X3504944Y-14548650D01*
X3504944Y-14548650D02*
X3495420Y-14558174D01*
X3495420Y-14558174D02*
X3476372Y-14567698D01*
X3476372Y-14567698D02*
X3438277Y-14567698D01*
X3438277Y-14567698D02*
X3419229Y-14577222D01*
X3419229Y-14577222D02*
X3409706Y-14586746D01*
X3409706Y-14586746D02*
X3400182Y-14605793D01*
X3400182Y-14605793D02*
X3400182Y-14643888D01*
X3400182Y-14643888D02*
X3409706Y-14662936D01*
X3409706Y-14662936D02*
X3419229Y-14672460D01*
X3419229Y-14672460D02*
X3438277Y-14681984D01*
X3438277Y-14681984D02*
X3476372Y-14681984D01*
X3476372Y-14681984D02*
X3495420Y-14672460D01*
X3495420Y-14672460D02*
X3504944Y-14662936D01*
X3504944Y-14662936D02*
X3514467Y-14643888D01*
X3514467Y-14643888D02*
X3514467Y-14605793D01*
X3514467Y-14605793D02*
X3504944Y-14586746D01*
X3504944Y-14586746D02*
X3495420Y-14577222D01*
X3495420Y-14577222D02*
X3476372Y-14567698D01*
X3581134Y-14481984D02*
X3714467Y-14481984D01*
X3714467Y-14481984D02*
X3628753Y-14681984D01*
X3781134Y-14481984D02*
X3781134Y-14520079D01*
X3857325Y-14481984D02*
X3857325Y-14520079D01*
X4152563Y-14758174D02*
X4143039Y-14748650D01*
X4143039Y-14748650D02*
X4123991Y-14720079D01*
X4123991Y-14720079D02*
X4114468Y-14701031D01*
X4114468Y-14701031D02*
X4104944Y-14672460D01*
X4104944Y-14672460D02*
X4095420Y-14624841D01*
X4095420Y-14624841D02*
X4095420Y-14586746D01*
X4095420Y-14586746D02*
X4104944Y-14539127D01*
X4104944Y-14539127D02*
X4114468Y-14510555D01*
X4114468Y-14510555D02*
X4123991Y-14491508D01*
X4123991Y-14491508D02*
X4143039Y-14462936D01*
X4143039Y-14462936D02*
X4152563Y-14453412D01*
X4314468Y-14548650D02*
X4314468Y-14681984D01*
X4266849Y-14472460D02*
X4219230Y-14615317D01*
X4219230Y-14615317D02*
X4343039Y-14615317D01*
X4447801Y-14567698D02*
X4428753Y-14558174D01*
X4428753Y-14558174D02*
X4419230Y-14548650D01*
X4419230Y-14548650D02*
X4409706Y-14529603D01*
X4409706Y-14529603D02*
X4409706Y-14520079D01*
X4409706Y-14520079D02*
X4419230Y-14501031D01*
X4419230Y-14501031D02*
X4428753Y-14491508D01*
X4428753Y-14491508D02*
X4447801Y-14481984D01*
X4447801Y-14481984D02*
X4485896Y-14481984D01*
X4485896Y-14481984D02*
X4504944Y-14491508D01*
X4504944Y-14491508D02*
X4514468Y-14501031D01*
X4514468Y-14501031D02*
X4523991Y-14520079D01*
X4523991Y-14520079D02*
X4523991Y-14529603D01*
X4523991Y-14529603D02*
X4514468Y-14548650D01*
X4514468Y-14548650D02*
X4504944Y-14558174D01*
X4504944Y-14558174D02*
X4485896Y-14567698D01*
X4485896Y-14567698D02*
X4447801Y-14567698D01*
X4447801Y-14567698D02*
X4428753Y-14577222D01*
X4428753Y-14577222D02*
X4419230Y-14586746D01*
X4419230Y-14586746D02*
X4409706Y-14605793D01*
X4409706Y-14605793D02*
X4409706Y-14643888D01*
X4409706Y-14643888D02*
X4419230Y-14662936D01*
X4419230Y-14662936D02*
X4428753Y-14672460D01*
X4428753Y-14672460D02*
X4447801Y-14681984D01*
X4447801Y-14681984D02*
X4485896Y-14681984D01*
X4485896Y-14681984D02*
X4504944Y-14672460D01*
X4504944Y-14672460D02*
X4514468Y-14662936D01*
X4514468Y-14662936D02*
X4523991Y-14643888D01*
X4523991Y-14643888D02*
X4523991Y-14605793D01*
X4523991Y-14605793D02*
X4514468Y-14586746D01*
X4514468Y-14586746D02*
X4504944Y-14577222D01*
X4504944Y-14577222D02*
X4485896Y-14567698D01*
X4762087Y-14681984D02*
X4762087Y-14481984D01*
X4847801Y-14681984D02*
X4847801Y-14577222D01*
X4847801Y-14577222D02*
X4838277Y-14558174D01*
X4838277Y-14558174D02*
X4819230Y-14548650D01*
X4819230Y-14548650D02*
X4790658Y-14548650D01*
X4790658Y-14548650D02*
X4771611Y-14558174D01*
X4771611Y-14558174D02*
X4762087Y-14567698D01*
X4971611Y-14681984D02*
X4952563Y-14672460D01*
X4952563Y-14672460D02*
X4943039Y-14662936D01*
X4943039Y-14662936D02*
X4933515Y-14643888D01*
X4933515Y-14643888D02*
X4933515Y-14586746D01*
X4933515Y-14586746D02*
X4943039Y-14567698D01*
X4943039Y-14567698D02*
X4952563Y-14558174D01*
X4952563Y-14558174D02*
X4971611Y-14548650D01*
X4971611Y-14548650D02*
X5000182Y-14548650D01*
X5000182Y-14548650D02*
X5019230Y-14558174D01*
X5019230Y-14558174D02*
X5028753Y-14567698D01*
X5028753Y-14567698D02*
X5038277Y-14586746D01*
X5038277Y-14586746D02*
X5038277Y-14643888D01*
X5038277Y-14643888D02*
X5028753Y-14662936D01*
X5028753Y-14662936D02*
X5019230Y-14672460D01*
X5019230Y-14672460D02*
X5000182Y-14681984D01*
X5000182Y-14681984D02*
X4971611Y-14681984D01*
X5152563Y-14681984D02*
X5133515Y-14672460D01*
X5133515Y-14672460D02*
X5123992Y-14653412D01*
X5123992Y-14653412D02*
X5123992Y-14481984D01*
X5304944Y-14672460D02*
X5285896Y-14681984D01*
X5285896Y-14681984D02*
X5247801Y-14681984D01*
X5247801Y-14681984D02*
X5228753Y-14672460D01*
X5228753Y-14672460D02*
X5219230Y-14653412D01*
X5219230Y-14653412D02*
X5219230Y-14577222D01*
X5219230Y-14577222D02*
X5228753Y-14558174D01*
X5228753Y-14558174D02*
X5247801Y-14548650D01*
X5247801Y-14548650D02*
X5285896Y-14548650D01*
X5285896Y-14548650D02*
X5304944Y-14558174D01*
X5304944Y-14558174D02*
X5314468Y-14577222D01*
X5314468Y-14577222D02*
X5314468Y-14596269D01*
X5314468Y-14596269D02*
X5219230Y-14615317D01*
X5390658Y-14672460D02*
X5409706Y-14681984D01*
X5409706Y-14681984D02*
X5447801Y-14681984D01*
X5447801Y-14681984D02*
X5466849Y-14672460D01*
X5466849Y-14672460D02*
X5476373Y-14653412D01*
X5476373Y-14653412D02*
X5476373Y-14643888D01*
X5476373Y-14643888D02*
X5466849Y-14624841D01*
X5466849Y-14624841D02*
X5447801Y-14615317D01*
X5447801Y-14615317D02*
X5419230Y-14615317D01*
X5419230Y-14615317D02*
X5400182Y-14605793D01*
X5400182Y-14605793D02*
X5390658Y-14586746D01*
X5390658Y-14586746D02*
X5390658Y-14577222D01*
X5390658Y-14577222D02*
X5400182Y-14558174D01*
X5400182Y-14558174D02*
X5419230Y-14548650D01*
X5419230Y-14548650D02*
X5447801Y-14548650D01*
X5447801Y-14548650D02*
X5466849Y-14558174D01*
X5543039Y-14758174D02*
X5552563Y-14748650D01*
X5552563Y-14748650D02*
X5571611Y-14720079D01*
X5571611Y-14720079D02*
X5581134Y-14701031D01*
X5581134Y-14701031D02*
X5590658Y-14672460D01*
X5590658Y-14672460D02*
X5600182Y-14624841D01*
X5600182Y-14624841D02*
X5600182Y-14586746D01*
X5600182Y-14586746D02*
X5590658Y-14539127D01*
X5590658Y-14539127D02*
X5581134Y-14510555D01*
X5581134Y-14510555D02*
X5571611Y-14491508D01*
X5571611Y-14491508D02*
X5552563Y-14462936D01*
X5552563Y-14462936D02*
X5543039Y-14453412D01*
M02*
